<?xml version="1.0" encoding="utf-8"?>
<!-- Generator: Adobe Illustrator 12.0.1, SVG Export Plug-In . SVG Version: 6.00 Build 51448)  -->
<!DOCTYPE svg PUBLIC "-//W3C//DTD SVG 1.1//EN" "http://www.w3.org/Graphics/SVG/1.1/DTD/svg11.dtd" [
	<!ENTITY ns_svg "http://www.w3.org/2000/svg">
	<!ENTITY ns_xlink "http://www.w3.org/1999/xlink">
	<!ENTITY st0 "fill-rule:evenodd;clip-rule:evenodd;">
	<!ENTITY st1 "fill:#FFFFFF;">
]>
<svg  version="1.1" id="Layer_1" xmlns="&ns_svg;" xmlns:xlink="&ns_xlink;" width="976" height="1472" viewBox="0 0 976 1472"
	 style="overflow:visible;enable-background:new 0 0 976 1472;" xml:space="preserve">
<g>
	<rect style="&st1;" width="976" height="1472"/>
	<g>
		<path d="M45,1180.2c3.3,0,6,0,8.5,2c2.5,2,4.1,4.4,4.1,7.6c0,4.1-2.8,6.6-6.5,7.8c5.3,0.7,8.9,5.2,8.9,10.5c0,3.8-1.5,7-4.4,9.5
			c-3.3,2.9-6.6,3-10.9,3h-18v-0.2c3-1.9,2.6-5.4,2.6-8.6v-22.9c0-3.2,0.4-6.7-2.6-8.5v-0.2H45z M40.7,1195.7
			c0.4,0.1,0.7,0.2,1.2,0.2c3,0,4.5-2.6,4.5-5.3c0-2.4-1.2-4.7-3.9-4.7c-0.6,0-1.2,0.1-1.8,0.4V1195.7z M40.7,1214.2
			c0.9,0.6,1.6,0.7,2.7,0.7c4,0,5.6-3.3,5.6-6.9c0-4.7-2.2-6.8-6.8-6.8h-1.5V1214.2z"/>
		<path d="M75.3,1207.3c0,2.7-0.6,7.9,3.4,7.9c1.1,0,2.3-0.4,2.9-1.4c1-1.5,0.9-3.1,0.9-4.7v-10c0-2.9,0.1-4.7-2.2-6.6v-0.2h8.4
			c1.6,0,3-0.2,4.2-0.9h0.2v22.4c0.1,2.9-0.2,4.7,2.1,6.6v0.2H82.5v-3.3c-2,2.8-4.8,4.1-8.4,4.1c-2.4,0-5-0.7-6.9-2.3
			c-2.5-2.2-2.5-5-2.5-8.1v-11.9c0-2.9,0.1-4.7-2.2-6.6v-0.2H71c1.6,0,3-0.2,4.1-0.9h0.2V1207.3z"/>
		<path d="M99.2,1198h-3.7v-4.2c5.3-0.4,9.6-5,10.1-10.2h4.2v8.8h6.8v7.5h-0.2c-1.7-1.9-2.5-1.8-5.1-1.8h-1.5v11.5
			c0,2.2-0.1,3.8,1.9,5.1c1.5,1,3.3,1,4.9,1.1l-2.7,5.2c-1.6,0.1-3.3,0.4-4.9,0.4c-2.5,0-5.7-0.7-7.7-2.4c-2.3-2.1-2.2-5-2.2-7.9
			V1198z"/>
		<path d="M156.3,1199.2c0.4-1,0.8-2.4,0.8-3.6c0-1.4-0.6-2.2-1.5-3v-0.2h9v0.2l-11.6,30.4c-1.5,4-2.5,6.6-6.5,8.8
			c-2.8,1.4-6.1,1.7-9.2,1.7l-2.8-0.2l4.9-6.2c0.4,0.1,0.9,0.2,1.4,0.2c4.6,0,6.5-3.4,7.6-7.3c-2.6-1.7-3.9-3.7-5.2-6.6l-6.4-15.3
			c-0.9-2.2-2-4.4-3.9-5.6v-0.2h13.5v0.2c0.2,1,0.7,2.2,1.2,3.3l0.6,1.4l4.7,11.7L156.3,1199.2z"/>
		<path d="M166.3,1206.8c0-9.4,6.8-15.2,16-15.2c3.9,0,7.7,0.9,10.8,3.5c3.2,2.6,5.1,6.9,5.1,11.1c0,9.7-7,15.3-16.4,15.3
			C173,1221.5,166.3,1215.9,166.3,1206.8z M187.8,1207.5c0-3.8-0.8-10-5.8-10c-4.4,0-5.4,4.1-5.4,7.7c0,4.1,0.5,10.6,5.9,10.6
			C187.2,1215.8,187.8,1211.1,187.8,1207.5z"/>
		<path d="M214.3,1207.3c0,2.7-0.6,7.9,3.4,7.9c1.1,0,2.3-0.4,2.9-1.4c1-1.5,0.9-3.1,0.9-4.7v-10c0-2.9,0.1-4.7-2.2-6.6v-0.2h8.4
			c1.6,0,3-0.2,4.2-0.9h0.2v22.4c0.1,2.9-0.2,4.7,2.1,6.6v0.2h-12.7v-3.3c-2,2.8-4.8,4.1-8.4,4.1c-2.4,0-5-0.7-6.9-2.3
			c-2.5-2.2-2.5-5-2.5-8.1v-11.9c0-2.9,0.1-4.7-2.2-6.6v-0.2h8.5c1.6,0,3-0.2,4.1-0.9h0.2V1207.3z"/>
		<path d="M280.7,1199.3h-0.2c-1.8-1.2-3.8-2-6.3-2c-1.8,0-3.6,0.7-4.7,2.2c-1.4,1.7-1.6,4.1-1.6,6.1c0,2.5,0.8,5.7,2.6,7.7
			c1.4,1.6,3.6,2.2,5.6,2.2c2.8,0,6-1.2,8.1-2.9h0.2l-2,6.7c-3.3,1.6-6.9,2.3-10.6,2.3c-8.5,0-15.8-5.6-15.8-14.5
			c0-10.1,7.9-15.4,17.3-15.4c2.4,0,4.9,0.4,7.3,0.6V1199.3z"/>
		<path d="M315.2,1221.3l-2.5,0.2c-3.1,0-6-0.7-8.4-2.8c-2.9-2.7-2.6-5.5-2.6-9.2v-2l-2,0.9c-1.5,0.7-3.5,1.7-3.5,3.7
			c0,2.2,1.5,4,3.8,4c0.4,0,0.8-0.1,1.2-0.1l-2.6,5.4l-3.1,0.2c-2.1,0-4.8-0.4-6.6-1.5c-2.5-1.5-4.1-4.4-4.1-7.2
			c0-11.4,16.9-7.6,16.9-12.8c0-1.9-2.4-2.6-3.9-2.6c-2.5,0-5.5,0.9-7.7,2l2.9-7c2.5-0.7,5.1-0.9,7.7-0.9c2.9,0,6.1,0.6,8.5,2.3
			c3.1,2.3,3.4,5.9,3.4,9.5v4.9c0,4.1-0.2,7.5,5.1,7.6L315.2,1221.3z"/>
		<path d="M330.9,1194.8c1.8-2.3,4.4-3.3,7.6-3.3c3.3,0,6.4,0.9,8.7,3.5s2.1,5.4,2.1,8.7v10.1c0,2.9-0.2,4.7,2.2,6.6v0.2h-14.9v-0.2
			c2.3-1.9,2.2-3.7,2.2-6.6v-10.4c0-1.4,0-2.8-0.9-3.9c-0.7-1.1-1.9-1.7-3.2-1.7c-1,0-2.2,0.6-2.8,1.4c-0.9,1.2-0.9,2.9-0.9,4.2
			v10.4c0,2.9-0.2,4.7,2.2,6.6v0.2h-14.9v-0.2c2.3-1.9,2.2-3.7,2.2-6.6v-14.8c0-2.8,0.2-4.6-2.2-6.6v-0.2h8.2c1.5,0,2.8-0.2,4.4-0.9
			h0.2V1194.8z"/>
		<path d="M373.5,1198h-3.7v-4.2c5.3-0.4,9.6-5,10.1-10.2h4.2v8.8h6.8v7.5h-0.2c-1.7-1.9-2.5-1.8-5.1-1.8h-1.5v11.5
			c0,2.2-0.1,3.8,1.9,5.1c1.5,1,3.3,1,4.9,1.1l-2.7,5.2c-1.6,0.1-3.3,0.4-4.9,0.4c-2.5,0-5.7-0.7-7.7-2.4c-2.3-2.1-2.2-5-2.2-7.9
			V1198z"/>
		<path d="M405,1207.3c0,2.7-0.6,7.9,3.4,7.9c1.1,0,2.3-0.4,2.9-1.4c1-1.5,0.9-3.1,0.9-4.7v-10c0-2.9,0.1-4.7-2.2-6.6v-0.2h8.4
			c1.6,0,3-0.2,4.2-0.9h0.2v22.4c0.1,2.9-0.2,4.7,2.1,6.6v0.2h-12.7v-3.3c-2,2.8-4.8,4.1-8.4,4.1c-2.4,0-5-0.7-6.9-2.3
			c-2.5-2.2-2.5-5-2.5-8.1v-11.9c0-2.9,0.1-4.7-2.2-6.6v-0.2h8.5c1.6,0,3-0.2,4.1-0.9h0.2V1207.3z"/>
		<path d="M440.5,1196c0.9-2.8,3.5-4.4,6.6-4.4l2.3,0.2v7.5c-1-0.2-2.2-0.5-3.2-0.5c-1.8,0-3.6,0.7-4.9,2.1c-1,1.2-0.9,2.2-0.9,3.8
			v9.3c0,2.8-0.2,4.7,2.1,6.6v0.2h-14.8v-0.2c2.3-1.9,2.1-3.7,2.1-6.6v-14.8c0-2.8,0.2-4.7-2.1-6.6v-0.2h8.6c1.4,0,2.8-0.2,3.9-0.9
			h0.2V1196z"/>
		<path d="M464.7,1194.8c1.8-2.3,4.4-3.3,7.6-3.3c3.3,0,6.4,0.9,8.7,3.5c2.3,2.6,2.1,5.4,2.1,8.7v10.1c0,2.9-0.2,4.7,2.2,6.6v0.2
			h-14.9v-0.2c2.3-1.9,2.2-3.7,2.2-6.6v-10.4c0-1.4,0-2.8-0.9-3.9c-0.7-1.1-1.9-1.7-3.2-1.7c-1,0-2.2,0.6-2.8,1.4
			c-0.9,1.2-0.9,2.9-0.9,4.2v10.4c0,2.9-0.2,4.7,2.2,6.6v0.2h-14.9v-0.2c2.3-1.9,2.2-3.7,2.2-6.6v-14.8c0-2.8,0.2-4.6-2.2-6.6v-0.2
			h8.2c1.5,0,2.8-0.2,4.4-0.9h0.2V1194.8z"/>
		<path d="M514.5,1192.4c1.7,0,3-0.2,4.2-0.9h0.2v22.4c0,2.8-0.2,4.6,2.2,6.6v0.2h-14.9v-0.2c2.3-2,2.2-3.8,2.2-6.6v-14.8
			c0-2.9,0.2-4.7-2.1-6.6v-0.2H514.5z M507.4,1185.5c0-3.3,2.5-6.1,5.8-6.1c3.2,0,5.8,2.6,5.8,5.8c0,3.4-2.7,6-6,6
			C509.9,1191.2,507.4,1188.5,507.4,1185.5z"/>
		<path d="M524.5,1198h-3.7v-4.2c5.3-0.4,9.6-5,10.1-10.2h4.2v8.8h6.8v7.5h-0.2c-1.7-1.9-2.5-1.8-5.1-1.8h-1.5v11.5
			c0,2.2-0.1,3.8,1.9,5.1c1.5,1,3.3,1,4.9,1.1l-2.7,5.2c-1.6,0.1-3.3,0.4-4.9,0.4c-2.5,0-5.7-0.7-7.7-2.4c-2.3-2.1-2.2-5-2.2-7.9
			V1198z"/>
		<path d="M574.3,1215.5c0.6,0.2,1.2,0.3,1.8,0.3c5.4,0,7.3-4.2,7.3-9c0-5.2-2.1-9.5-7.7-9.7l2.9-5.2c0.9-0.3,1.8-0.4,2.8-0.4
			c3.3,0,7.1,1.5,9.4,3.9c2.5,2.5,3.9,6.4,3.9,10c0,4.7-1.8,9.1-5.6,12.2c-3.9,3.1-8.7,3.9-13.7,3.9c-4.4,0-9-0.7-13.3-1.7v-0.2
			c1.5-1.4,1.5-2.5,1.5-4.6v-28c-0.1-2.8,0.2-4.6-2.1-6.6v-0.2h8.1c1.7,0,3.1,0,4.4-1h0.2V1215.5z"/>
		<path d="M627.4,1221.3l-2.5,0.2c-3.1,0-6-0.7-8.4-2.8c-2.9-2.7-2.6-5.5-2.6-9.2v-2l-2,0.9c-1.5,0.7-3.5,1.7-3.5,3.7
			c0,2.2,1.5,4,3.8,4c0.4,0,0.8-0.1,1.2-0.1l-2.6,5.4l-3.1,0.2c-2.1,0-4.8-0.4-6.6-1.5c-2.5-1.5-4.1-4.4-4.1-7.2
			c0-11.4,16.9-7.6,16.9-12.8c0-1.9-2.4-2.6-3.9-2.6c-2.5,0-5.5,0.9-7.7,2l2.9-7c2.5-0.7,5.1-0.9,7.7-0.9c2.9,0,6.1,0.6,8.5,2.3
			c3.1,2.3,3.4,5.9,3.4,9.5v4.9c0,4.1-0.2,7.5,5.1,7.6L627.4,1221.3z"/>
		<path d="M655.6,1199.3h-0.2c-1.8-1.2-3.8-2-6.3-2c-1.8,0-3.6,0.7-4.7,2.2c-1.4,1.7-1.6,4.1-1.6,6.1c0,2.5,0.8,5.7,2.6,7.7
			c1.4,1.6,3.6,2.2,5.6,2.2c2.8,0,6-1.2,8.1-2.9h0.2l-2,6.7c-3.3,1.6-6.9,2.3-10.6,2.3c-8.5,0-15.8-5.6-15.8-14.5
			c0-10.1,7.9-15.4,17.3-15.4c2.4,0,4.9,0.4,7.3,0.6V1199.3z"/>
		<path d="M673.8,1204.6l4.9-5.7c0.9-1,1.9-1.8,1.9-3.2c0-1.4-1.2-2.6-2.3-3.1v-0.2h14.2v0.2l-9.5,10.6l8.1,12.7
			c1.2,1.8,2.3,3.6,4.1,4.7v0.2c-3.5,0-7.1,0.3-10.6,0.3c-2.8,0-3.9-1.8-5.2-4.1l-5.7-9.3v6.3c0,2.9-0.1,4.7,2.2,6.6v0.2H661v-0.2
			c2.3-2,2.1-3.8,2.2-6.6V1187c-0.1-2.8,0.2-4.6-2.2-6.6v-0.2h8.5c1.5,0,2.8-0.3,4.1-1h0.2V1204.6z"/>
		<path d="M27.3,1275.8c0-9.4,6.8-15.2,16-15.2c3.9,0,7.7,0.9,10.8,3.5c3.2,2.6,5.1,6.9,5.1,11.1c0,9.7-7,15.3-16.4,15.3
			C34,1290.5,27.3,1284.9,27.3,1275.8z M48.8,1276.5c0-3.8-0.8-10-5.8-10c-4.4,0-5.4,4.1-5.4,7.7c0,4.1,0.5,10.6,5.9,10.6
			C48.2,1284.8,48.8,1280.1,48.8,1276.5z"/>
		<path d="M75,1263.8c1.8-2.3,4.4-3.3,7.6-3.3c3.3,0,6.4,0.9,8.7,3.5s2.1,5.4,2.1,8.7v10.1c0,2.9-0.2,4.7,2.2,6.6v0.2H80.6v-0.2
			c2.3-1.9,2.2-3.7,2.2-6.6v-10.4c0-1.4,0-2.8-0.9-3.9c-0.7-1.1-1.9-1.7-3.2-1.7c-1,0-2.2,0.6-2.8,1.4c-0.9,1.2-0.9,2.9-0.9,4.2
			v10.4c0,2.9-0.2,4.7,2.2,6.6v0.2H62.2v-0.2c2.3-1.9,2.2-3.7,2.2-6.6v-14.8c0-2.8,0.2-4.6-2.2-6.6v-0.2h8.2c1.5,0,2.8-0.2,4.4-0.9
			H75V1263.8z"/>
		<path d="M126.1,1288.6c-3,1.3-6.4,1.9-9.7,1.9c-4.2,0-8.9-0.5-12.3-3c-3.9-2.8-5.6-7.4-5.6-12.1c0-8.6,6.5-14.8,15.1-14.8
			c9.7,0,14.4,5.6,14.6,15.1h-19.1c0,5.3,3.6,9.1,9,9.1c3.4,0,7.3-1.5,10.3-3.1L126.1,1288.6z M117.8,1270.4c0-2.4-1.2-4.5-4.1-4.5
			c-2.7,0-4.2,2-4.5,4.5H117.8z"/>
		<path d="M162.5,1263.2c2-2,5-2.6,7.7-2.6c3.4,0,6.4,1,8.7,3.6c2.1,2.3,1.7,5.7,1.7,8.6v10.1c0,2.9-0.2,4.7,2.2,6.6v0.2h-14.9v-0.2
			c2.3-1.9,2.2-3.7,2.2-6.6v-9.7c0-1.4,0.1-3.1-0.5-4.4c-0.6-1.2-1.9-1.9-3.3-1.9c-1.5,0-3,0.9-3.4,2.5c-0.4,1.3-0.2,3-0.2,4.4v9.1
			c0.1,2.9-0.2,4.7,2.1,6.6v0.2h-14.8v-0.2c2.3-1.9,2.1-3.7,2.1-6.6V1256c0-2.9,0.2-4.7-2.1-6.6v-0.2h8.2c1.7,0,3-0.2,4.4-1h0.2
			V1263.2z"/>
		<path d="M186,1275.8c0-9.4,6.8-15.2,16-15.2c3.9,0,7.7,0.9,10.8,3.5c3.2,2.6,5.1,6.9,5.1,11.1c0,9.7-7,15.3-16.4,15.3
			C192.7,1290.5,186,1284.9,186,1275.8z M207.5,1276.5c0-3.8-0.8-10-5.8-10c-4.4,0-5.4,4.1-5.4,7.7c0,4.1,0.5,10.6,5.9,10.6
			C206.9,1284.8,207.5,1280.1,207.5,1276.5z"/>
		<path d="M234,1276.3c0,2.7-0.6,7.9,3.4,7.9c1.1,0,2.3-0.4,2.9-1.4c1-1.5,0.9-3.1,0.9-4.7v-10c0-2.9,0.1-4.7-2.2-6.6v-0.2h8.4
			c1.6,0,3-0.2,4.2-0.9h0.2v22.4c0.1,2.9-0.2,4.7,2.1,6.6v0.2h-12.7v-3.3c-2,2.8-4.8,4.1-8.4,4.1c-2.4,0-5-0.7-6.9-2.3
			c-2.5-2.2-2.5-5-2.5-8.1v-11.9c0-2.9,0.1-4.7-2.2-6.6v-0.2h8.5c1.6,0,3-0.2,4.1-0.9h0.2V1276.3z"/>
		<path d="M269.6,1265c0.9-2.8,3.5-4.4,6.6-4.4l2.3,0.2v7.5c-1-0.2-2.2-0.5-3.2-0.5c-1.8,0-3.6,0.7-4.9,2.1c-1,1.2-0.9,2.2-0.9,3.8
			v9.3c0,2.8-0.2,4.7,2.1,6.6v0.2h-14.8v-0.2c2.3-1.9,2.1-3.7,2.1-6.6v-14.8c0-2.8,0.2-4.7-2.1-6.6v-0.2h8.6c1.4,0,2.8-0.2,3.9-0.9
			h0.2V1265z"/>
		<path d="M326.3,1290.3l-2.5,0.2c-3.1,0-6-0.7-8.4-2.8c-2.9-2.7-2.6-5.5-2.6-9.2v-2l-2,0.9c-1.5,0.7-3.5,1.7-3.5,3.7
			c0,2.2,1.5,4,3.8,4c0.4,0,0.8-0.1,1.2-0.1l-2.6,5.4l-3.1,0.2c-2.1,0-4.8-0.4-6.6-1.5c-2.5-1.5-4.1-4.4-4.1-7.2
			c0-11.4,16.9-7.6,16.9-12.8c0-1.9-2.4-2.6-3.9-2.6c-2.5,0-5.5,0.9-7.7,2l2.9-7c2.5-0.7,5.1-0.9,7.7-0.9c2.9,0,6.1,0.6,8.5,2.3
			c3.1,2.3,3.4,5.9,3.4,9.5v4.9c0,4.1-0.2,7.5,5.1,7.6L326.3,1290.3z"/>
		<path d="M330.4,1267h-3.7v-4.2c5.3-0.4,9.6-5,10.1-10.2h4.2v8.8h6.8v7.5h-0.2c-1.7-1.9-2.5-1.8-5.1-1.8h-1.5v11.5
			c0,2.2-0.1,3.8,1.9,5.1c1.5,1,3.3,1,4.9,1.1l-2.7,5.2c-1.6,0.1-3.3,0.4-4.9,0.4c-2.5,0-5.7-0.7-7.7-2.4c-2.3-2.1-2.2-5-2.2-7.9
			V1267z"/>
		<path d="M372.4,1250.3c3.3-1.4,7.3-2,10.8-2c6,0,12.9,3.4,12.9,10.2c0,4.2-2.8,8.7-4.8,12.4l-7.2,11.3l-0.7,1.1
			c1.6,0.4,3.2,0.5,4.9,0.5c4.2,0,7.2-1.1,10.9-3l-2.8,8.9h-29.1l9.4-15.4l4.7-8.6c1-1.9,2.6-4.7,2.6-7c0-2.6-2-4.1-4.4-4.1
			c-3.6,0-7,2-9.8,4.1L372.4,1250.3z"/>
		<path d="M449.3,1290.3l-2.5,0.2c-3.1,0-6-0.7-8.4-2.8c-2.9-2.7-2.6-5.5-2.6-9.2v-2l-2,0.9c-1.5,0.7-3.5,1.7-3.5,3.7
			c0,2.2,1.5,4,3.8,4c0.4,0,0.8-0.1,1.2-0.1l-2.6,5.4l-3.1,0.2c-2.1,0-4.8-0.4-6.6-1.5c-2.5-1.5-4.1-4.4-4.1-7.2
			c0-11.4,16.9-7.6,16.9-12.8c0-1.9-2.4-2.6-3.9-2.6c-2.5,0-5.5,0.9-7.7,2l2.9-7c2.5-0.7,5.1-0.9,7.7-0.9c2.9,0,6.1,0.6,8.5,2.3
			c3.1,2.3,3.4,5.9,3.4,9.5v4.9c0,4.1-0.2,7.5,5.1,7.6L449.3,1290.3z"/>
		<path d="M453.9,1284.8c0-3.3,2.5-6,5.9-6c3.1,0,5.7,2.6,5.7,5.8c0,3.3-2.6,5.9-6,5.9C456.4,1290.5,453.9,1287.8,453.9,1284.8z"/>
		<path d="M482.1,1264.2c1.8-2.4,4.3-3.6,7.4-3.6c3,0,5.5,1.2,7.4,3.6c2.3-2.6,5.5-3.6,9-3.6c2.6,0,5.4,0.7,7.5,2.3
			c2.6,2.1,3.1,4.4,3.1,7.6v12.4c0,2.8-0.2,4.6,2.2,6.6v0.2h-14.9v-0.2c2.3-2,2.1-3.7,2.1-6.6v-10.1c0-2.5,0.3-5.8-3.2-5.8
			c-3.6,0-3.4,3.4-3.4,5.8v10.1c0,2.8-0.2,4.6,2.2,6.6v0.2h-14.9v-0.2c2.3-2,2.1-3.7,2.1-6.6v-9.2c0-2.6,0.4-6.7-3.3-6.7
			c-3.8,0-3.3,4.2-3.3,6.7v9.2c0,2.8-0.2,4.6,2.2,6.6v0.2h-14.9v-0.2c2.3-2,2.1-3.7,2.1-6.6v-14.8c0-2.9,0.2-4.7-2.1-6.6v-0.2h8.5
			c1.4,0,2.8-0.3,4-0.9h0.2V1264.2z"/>
		<path d="M522.7,1284.8c0-3.3,2.5-6,5.9-6c3.1,0,5.7,2.6,5.7,5.8c0,3.3-2.6,5.9-6,5.9C525.3,1290.5,522.7,1287.8,522.7,1284.8z"/>
		<path d="M557.4,1275.8c0-9.4,6.8-15.2,16-15.2c3.9,0,7.7,0.9,10.8,3.5c3.2,2.6,5.1,6.9,5.1,11.1c0,9.7-7,15.3-16.4,15.3
			C564.1,1290.5,557.4,1284.9,557.4,1275.8z M579,1276.5c0-3.8-0.8-10-5.8-10c-4.4,0-5.4,4.1-5.4,7.7c0,4.1,0.5,10.6,5.9,10.6
			C578.3,1284.8,579,1280.1,579,1276.5z"/>
		<path d="M605.2,1263.8c1.8-2.3,4.4-3.3,7.6-3.3c3.3,0,6.4,0.9,8.7,3.5s2.1,5.4,2.1,8.7v10.1c0,2.9-0.2,4.7,2.2,6.6v0.2h-14.9v-0.2
			c2.3-1.9,2.2-3.7,2.2-6.6v-10.4c0-1.4,0-2.8-0.9-3.9c-0.7-1.1-1.9-1.7-3.2-1.7c-1,0-2.2,0.6-2.8,1.4c-0.9,1.2-0.9,2.9-0.9,4.2
			v10.4c0,2.9-0.2,4.7,2.2,6.6v0.2h-14.9v-0.2c2.3-1.9,2.2-3.7,2.2-6.6v-14.8c0-2.8,0.2-4.6-2.2-6.6v-0.2h8.2c1.5,0,2.8-0.2,4.4-0.9
			h0.2V1263.8z"/>
		<path d="M670.1,1248.2c12.9,0,22.4,7.5,22.4,21c0,13.4-10.6,21.2-23.1,21.2c-12.6,0-22.4-8.2-22.4-21.2
			C647,1256.2,657.6,1248.2,670.1,1248.2z M661.8,1279c1.7,3,4.8,5.3,8.3,5.3c3.3,0,6.2-1.7,8.2-4.3c1.8-2.5,2.3-5.6,2.3-8.6
			c0-7-2.8-17-11.2-17c-7.3,0-10.5,6.9-10.5,13.3C658.9,1271.2,660.1,1276,661.8,1279z"/>
		<path d="M719.8,1268.3h-0.2c-1.8-1.2-3.8-2-6.3-2c-1.8,0-3.6,0.7-4.7,2.2c-1.4,1.7-1.6,4.1-1.6,6.1c0,2.5,0.8,5.7,2.6,7.7
			c1.4,1.6,3.6,2.2,5.6,2.2c2.8,0,6-1.2,8.1-2.9h0.2l-2,6.7c-3.3,1.6-6.9,2.3-10.6,2.3c-8.5,0-15.8-5.6-15.8-14.5
			c0-10.1,7.9-15.4,17.3-15.4c2.4,0,4.9,0.4,7.3,0.6V1268.3z"/>
		<path d="M726.5,1267h-3.7v-4.2c5.3-0.4,9.6-5,10.1-10.2h4.2v8.8h6.8v7.5h-0.2c-1.7-1.9-2.5-1.8-5.1-1.8h-1.5v11.5
			c0,2.2-0.1,3.8,1.9,5.1c1.5,1,3.3,1,4.9,1.1l-2.7,5.2c-1.6,0.1-3.3,0.4-4.9,0.4c-2.5,0-5.7-0.7-7.7-2.4c-2.3-2.1-2.2-5-2.2-7.9
			V1267z"/>
		<path d="M746.6,1284.8c0-3.3,2.5-6,5.9-6c3.1,0,5.7,2.6,5.7,5.8c0,3.3-2.6,5.9-6,5.9C749.2,1290.5,746.6,1287.8,746.6,1284.8z"/>
		<path d="M785.7,1250.3c3.3-1.4,7.3-2,10.8-2c6,0,12.9,3.4,12.9,10.2c0,4.2-2.8,8.7-4.8,12.4l-7.2,11.3l-0.7,1.1
			c1.6,0.4,3.2,0.5,4.9,0.5c4.2,0,7.2-1.1,10.9-3l-2.8,8.9h-29.1l9.4-15.4l4.7-8.6c1-1.9,2.6-4.7,2.6-7c0-2.6-2-4.1-4.4-4.1
			c-3.6,0-7,2-9.8,4.1L785.7,1250.3z"/>
		<path d="M821.9,1269.1c-3.6-2.1-6.2-5.3-6.2-9.7c0-3.8,1.9-7.1,5.2-8.9c3.1-1.8,6.9-2.3,10.5-2.3c3,0,6.6,0.5,9.3,2
			c3.1,1.7,5.5,5,5.5,8.7c0,3.9-2.4,6.7-6,8c4.6,2.2,7.6,5.4,7.6,10.8c0,9.3-8.2,12.7-16.3,12.7c-3.8,0-7.7-0.6-11.1-2.4
			c-3.6-1.9-5.9-5.4-5.9-9.4C814.6,1273.9,817.6,1270.6,821.9,1269.1z M826.3,1271.9c-2,1.2-3.1,3.4-3.1,5.7c0,4.1,3.2,7.1,7.3,7.1
			c3,0,6.2-1.7,6.2-4.9c0-3.4-3.9-4.9-6.5-6.2L826.3,1271.9z M835.6,1264.5c1.4-1,2-2.6,2-4.3c0-3.5-2.4-6.5-6.2-6.5
			c-2.3,0-4.6,1.2-4.6,3.8c0,3.4,4.7,5.1,7.3,6.3L835.6,1264.5z"/>
		<path d="M47.5,1336.2c-0.3-2.3-1.4-4.4-3.3-5.6v-0.2h12.2l5.4,16.1l3-8.1c0.4-1,1.1-2.8,1.1-3.8c0-1.4-0.9-3.1-1.8-3.9v-0.2h9.7
			l-11.3,29.3c-2-0.4-5.3-1.7-6.8-3c-2-1.7-3.4-7.1-4.2-9.4l-1.1-3.3l-6.3,15.7c-1.9-0.6-3.8-1.2-5.5-2.3c-2-1.3-2.3-1.8-3.1-3.9
			l-5.5-14.8c-1-2.8-2-5.9-4.1-8.1v-0.2h7.1c1.8,0,3.3,0,4.8-0.9h0.2l5.8,17L47.5,1336.2z"/>
		<path d="M88.7,1332.2c2-2,5-2.6,7.7-2.6c3.4,0,6.4,1,8.7,3.6c2.1,2.3,1.7,5.7,1.7,8.6v10.1c0,2.9-0.2,4.7,2.2,6.6v0.2H94v-0.2
			c2.3-1.9,2.2-3.7,2.2-6.6v-9.7c0-1.4,0.1-3.1-0.5-4.4c-0.6-1.2-1.9-1.9-3.3-1.9c-1.5,0-3,0.9-3.4,2.5c-0.4,1.3-0.2,3-0.2,4.4v9.1
			c0.1,2.9-0.2,4.7,2.1,6.6v0.2H76v-0.2c2.3-1.9,2.1-3.7,2.1-6.6V1325c0-2.9,0.2-4.7-2.1-6.6v-0.2h8.2c1.7,0,3-0.2,4.4-1h0.2V1332.2
			z"/>
		<path d="M139.7,1357.6c-3,1.3-6.4,1.9-9.7,1.9c-4.2,0-8.9-0.5-12.3-3c-3.9-2.8-5.6-7.4-5.6-12.1c0-8.6,6.5-14.8,15.1-14.8
			c9.7,0,14.4,5.6,14.6,15.1h-19.1c0,5.3,3.6,9.1,9,9.1c3.4,0,7.3-1.5,10.3-3.1L139.7,1357.6z M131.3,1339.4c0-2.4-1.2-4.5-4.1-4.5
			c-2.7,0-4.2,2-4.5,4.5H131.3z"/>
		<path d="M157.4,1332.8c1.8-2.3,4.4-3.3,7.6-3.3c3.3,0,6.4,0.9,8.7,3.5s2.1,5.4,2.1,8.7v10.1c0,2.9-0.2,4.7,2.2,6.6v0.2H163v-0.2
			c2.3-1.9,2.2-3.7,2.2-6.6v-10.4c0-1.4,0-2.8-0.9-3.9c-0.7-1.1-1.9-1.7-3.2-1.7c-1,0-2.2,0.6-2.8,1.4c-0.9,1.2-0.9,2.9-0.9,4.2
			v10.4c0,2.9-0.2,4.7,2.2,6.6v0.2h-14.9v-0.2c2.3-1.9,2.2-3.7,2.2-6.6v-14.8c0-2.8,0.2-4.6-2.2-6.6v-0.2h8.2c1.5,0,2.8-0.2,4.4-0.9
			h0.2V1332.8z"/>
		<path d="M219.9,1341.4c0-1.3,0.1-2.5-0.7-3.8c-0.7-1.2-2-1.8-3.3-1.8c-4.3,0-5.1,5-5.1,8.4c0,2.4,0.4,5.1,2,7
			c1.1,1.4,3,2.3,4.7,2.3h0.9l-2.9,5.2c-0.8,0.4-1.7,0.4-2.5,0.4c-7.9,0-13.5-6.8-13.5-14.5c0-7.9,5.2-15.1,13.6-15.1
			c2.5,0,4.7,0.7,6.9,2.1v-6.6c-0.2-2.9,0.1-4.7-2.2-6.6v-0.2h7.4c2,0,3.6,0,5.2-1h0.2v32.5c0,3.6,0,6.3,2.7,8.8v0.2h-13.3V1341.4z"
			/>
		<path d="M265.2,1359.3l-2.5,0.2c-3.1,0-6-0.7-8.4-2.8c-2.9-2.7-2.6-5.5-2.6-9.2v-2l-2,0.9c-1.5,0.7-3.5,1.7-3.5,3.7
			c0,2.2,1.5,4,3.8,4c0.4,0,0.8-0.1,1.2-0.1l-2.6,5.4l-3.1,0.2c-2.1,0-4.8-0.4-6.6-1.5c-2.5-1.5-4.1-4.4-4.1-7.2
			c0-11.4,16.9-7.6,16.9-12.8c0-1.9-2.4-2.6-3.9-2.6c-2.5,0-5.5,0.9-7.7,2l2.9-7c2.5-0.7,5.1-0.9,7.7-0.9c2.9,0,6.1,0.6,8.5,2.3
			c3.1,2.3,3.4,5.9,3.4,9.5v4.9c0,4.1-0.2,7.5,5.1,7.6L265.2,1359.3z"/>
		<path d="M288.7,1337.2c0.4-1,0.8-2.4,0.8-3.6c0-1.4-0.6-2.2-1.5-3v-0.2h9v0.2l-11.6,30.4c-1.5,4-2.5,6.6-6.5,8.8
			c-2.8,1.4-6.1,1.7-9.2,1.7l-2.8-0.2l4.9-6.2c0.4,0.1,0.9,0.2,1.4,0.2c4.6,0,6.5-3.4,7.6-7.3c-2.6-1.7-3.9-3.7-5.2-6.6l-6.4-15.3
			c-0.9-2.2-2-4.4-3.9-5.6v-0.2h13.5v0.2c0.2,1,0.7,2.2,1.2,3.3l0.6,1.4l4.7,11.7L288.7,1337.2z"/>
		<path d="M305.4,1318.2c2.2,0,3.8-0.3,5.5-1h0.2v34.7c0,2.8-0.2,4.6,2.1,6.6v0.2h-14.8v-0.2c2.3-2,2.1-3.8,2.1-6.6V1325
			c0-3.1,0.2-4.5-2-6.6v-0.2H305.4z"/>
		<path d="M324.6,1330.4c1.7,0,3-0.2,4.2-0.9h0.2v22.4c0,2.8-0.2,4.6,2.2,6.6v0.2h-14.9v-0.2c2.3-2,2.2-3.8,2.2-6.6v-14.8
			c0-2.9,0.2-4.7-2.1-6.6v-0.2H324.6z M317.5,1323.5c0-3.3,2.5-6.1,5.8-6.1c3.2,0,5.8,2.6,5.8,5.8c0,3.4-2.7,6-6,6
			C320,1329.2,317.5,1326.5,317.5,1323.5z"/>
		<path d="M362.7,1335.6h-2.8c1.5,1.4,2.3,3.3,2.3,5.4c0,3-1.6,5.3-3.9,7c-2.5,1.8-6.1,2.8-9.1,2.8c-0.8,0-3.1,0.2-3.1,1.4
			c0,0.5,0.6,0.7,1,0.7l6.3-0.4c2.5,0,5.6,0.4,7.8,1.7c2.6,1.5,4.4,4.2,4.4,7.3c0,3.9-2.8,6.8-6.2,8.3c-3.3,1.4-7.7,1.7-11.3,1.7
			c-2.9,0-6.1-0.2-8.9-0.9c-2.8-0.8-6-2.6-6-6c0-3.4,3.2-5.4,6.3-5.4c1.6,0,3.2,0.2,4.6,1c-1.4,0.2-2.3,1-2.3,2.6
			c0,3,3.4,3.4,5.7,3.4c3,0,7-1,6.6-4.6c-0.1-1.2-0.8-2.2-1.6-3.1c-1.1-1.2-2.8-1.4-4.4-1.4c-1.7,0-3.3,0.3-5,0.3
			c-1.5,0-2.6-0.5-3.5-1.7c-0.6-0.7-1.8-2.6-1.8-3.7c0-1,1.7-1.4,2.3-1.7l1.7-0.7c-4.2-1.5-7.3-4.6-7.3-9.3
			c0-7.1,6.5-10.8,12.9-10.8c1.6,0,3.3,0.3,4.8,0.7l13-0.4L362.7,1335.6z M348.3,1345.3c2.6,0,3.6-2.2,3.6-4.4
			c0-2.4-0.8-5.8-3.8-5.8c-2.7,0-3.6,2.4-3.6,4.7C344.6,1342.1,345.4,1345.3,348.3,1345.3z"/>
		<path d="M379.1,1332.2c2-2,5-2.6,7.7-2.6c3.4,0,6.4,1,8.7,3.6c2.1,2.3,1.7,5.7,1.7,8.6v10.1c0,2.9-0.2,4.7,2.2,6.6v0.2h-14.9v-0.2
			c2.3-1.9,2.2-3.7,2.2-6.6v-9.7c0-1.4,0.1-3.1-0.5-4.4c-0.6-1.2-1.9-1.9-3.3-1.9c-1.5,0-3,0.9-3.4,2.5c-0.4,1.3-0.2,3-0.2,4.4v9.1
			c0.1,2.9-0.2,4.7,2.1,6.6v0.2h-14.8v-0.2c2.3-1.9,2.1-3.7,2.1-6.6V1325c0-2.9,0.2-4.7-2.1-6.6v-0.2h8.2c1.7,0,3-0.2,4.4-1h0.2
			V1332.2z"/>
		<path d="M403.6,1336h-3.7v-4.2c5.3-0.4,9.6-5,10.1-10.2h4.2v8.8h6.8v7.5h-0.2c-1.7-1.9-2.5-1.8-5.1-1.8h-1.5v11.5
			c0,2.2-0.1,3.8,1.9,5.1c1.5,1,3.3,1,4.9,1.1l-2.7,5.2c-1.6,0.1-3.3,0.4-4.9,0.4c-2.5,0-5.7-0.7-7.7-2.4c-2.3-2.1-2.2-5-2.2-7.9
			V1336z"/>
		<path d="M438.5,1340.2c2.6,0,5-0.2,7.4-0.9l-3.1,4.5c-0.4,0.5-1.5,2.3-2,2.6c-0.6,0.4-1.7,0.3-2.3,0.3h-7.3c-2.6,0-5,0.2-7.4,0.9
			l3.1-4.5c0.4-0.5,1.5-2.3,2-2.6c0.6-0.4,1.7-0.3,2.3-0.3H438.5z"/>
		<path d="M449.8,1351c3.3,2,7,3.4,10.9,3.4c1.7,0,4.4-0.4,4.4-2.7c0-4.1-14.7-4.4-14.7-12.7c0-3.3,1.7-5.8,4.6-7.4
			c2.8-1.7,6.1-2,9.3-2c3.2,0,6.4,0.4,9.5,1.2v6.4c-2.3-1.5-5.1-2.4-7.9-2.4c-1.2,0-3.6,0.3-3.6,2c0,1.9,2,2.4,3.5,2.8
			c2.2,0.7,4.7,1.4,6.7,2.6c2.6,1.7,4.7,4.1,4.7,7.2c0,8.2-9.2,10.1-15.7,10.1c-3.4,0-6.9-0.7-10.3-1.4L449.8,1351z"/>
		<path d="M509,1359.3l-2.5,0.2c-3.1,0-6-0.7-8.4-2.8c-2.9-2.7-2.6-5.5-2.6-9.2v-2l-2,0.9c-1.5,0.7-3.5,1.7-3.5,3.7
			c0,2.2,1.5,4,3.8,4c0.4,0,0.8-0.1,1.2-0.1l-2.6,5.4l-3.1,0.2c-2.1,0-4.8-0.4-6.6-1.5c-2.5-1.5-4.1-4.4-4.1-7.2
			c0-11.4,16.9-7.6,16.9-12.8c0-1.9-2.4-2.6-3.9-2.6c-2.5,0-5.5,0.9-7.7,2l2.9-7c2.5-0.7,5.1-0.9,7.7-0.9c2.9,0,6.2,0.6,8.5,2.3
			c3.1,2.3,3.4,5.9,3.4,9.5v4.9c0,4.1-0.2,7.5,5.1,7.6L509,1359.3z"/>
		<path d="M530.8,1337.6c0.5-1.2,1.1-2.6,1.1-4c0-1.4-0.5-2.2-1.4-3v-0.2h8.8l-11.4,29.8c-1.2-0.1-2.5-0.7-3.5-1.4
			c-4.6-2.5-5.2-3.7-7-8.4l-5.1-13.7c-0.9-2.5-1.6-4.4-3.5-6.2v-0.2h7.6c1.5,0,3.1,0.1,4.2-0.9h0.2l6.5,17.9L530.8,1337.6z"/>
		<path d="M549.4,1330.4c1.7,0,3-0.2,4.2-0.9h0.2v22.4c0,2.8-0.2,4.6,2.2,6.6v0.2H541v-0.2c2.3-2,2.2-3.8,2.2-6.6v-14.8
			c0-2.9,0.2-4.7-2.1-6.6v-0.2H549.4z M542.3,1323.5c0-3.3,2.5-6.1,5.8-6.1c3.2,0,5.8,2.6,5.8,5.8c0,3.4-2.7,6-6,6
			C544.9,1329.2,542.3,1326.5,542.3,1323.5z"/>
		<path d="M571.4,1332.8c1.8-2.3,4.4-3.3,7.6-3.3c3.3,0,6.4,0.9,8.7,3.5s2.1,5.4,2.1,8.7v10.1c0,2.9-0.2,4.7,2.2,6.6v0.2h-14.9v-0.2
			c2.3-1.9,2.2-3.7,2.2-6.6v-10.4c0-1.4,0-2.8-0.9-3.9c-0.7-1.1-1.9-1.7-3.2-1.7c-1,0-2.2,0.6-2.8,1.4c-0.9,1.2-0.9,2.9-0.9,4.2
			v10.4c0,2.9-0.2,4.7,2.2,6.6v0.2h-14.9v-0.2c2.3-1.9,2.2-3.7,2.2-6.6v-14.8c0-2.8,0.2-4.6-2.2-6.6v-0.2h8.2c1.5,0,2.8-0.2,4.4-0.9
			h0.2V1332.8z"/>
		<path d="M623.7,1335.6h-2.8c1.5,1.4,2.3,3.3,2.3,5.4c0,3-1.6,5.3-3.9,7c-2.5,1.8-6.2,2.8-9.1,2.8c-0.8,0-3.1,0.2-3.1,1.4
			c0,0.5,0.6,0.7,1,0.7l6.3-0.4c2.5,0,5.6,0.4,7.8,1.7c2.6,1.5,4.4,4.2,4.4,7.3c0,3.9-2.8,6.8-6.2,8.3c-3.3,1.4-7.7,1.7-11.3,1.7
			c-2.9,0-6.2-0.2-8.9-0.9c-2.8-0.8-6-2.6-6-6c0-3.4,3.2-5.4,6.3-5.4c1.6,0,3.2,0.2,4.6,1c-1.4,0.2-2.3,1-2.3,2.6
			c0,3,3.4,3.4,5.7,3.4c3,0,7-1,6.6-4.6c-0.1-1.2-0.8-2.2-1.6-3.1c-1.1-1.2-2.8-1.4-4.4-1.4c-1.7,0-3.3,0.3-5,0.3
			c-1.5,0-2.6-0.5-3.5-1.7c-0.6-0.7-1.8-2.6-1.8-3.7c0-1,1.7-1.4,2.3-1.7l1.7-0.7c-4.2-1.5-7.3-4.6-7.3-9.3
			c0-7.1,6.5-10.8,12.9-10.8c1.6,0,3.3,0.3,4.8,0.7l13-0.4L623.7,1335.6z M609.2,1345.3c2.6,0,3.6-2.2,3.6-4.4
			c0-2.4-0.8-5.8-3.8-5.8c-2.7,0-3.6,2.4-3.6,4.7C605.5,1342.1,606.4,1345.3,609.2,1345.3z"/>
		<path d="M646.8,1336h-3.7v-4.2c5.3-0.4,9.6-5,10.1-10.2h4.2v8.8h6.8v7.5h-0.2c-1.7-1.9-2.5-1.8-5.1-1.8h-1.5v11.5
			c0,2.2-0.1,3.8,1.9,5.1c1.5,1,3.3,1,4.9,1.1l-2.7,5.2c-1.6,0.1-3.3,0.4-4.9,0.4c-2.5,0-5.7-0.7-7.7-2.4c-2.3-2.1-2.2-5-2.2-7.9
			V1336z"/>
		<path d="M673.7,1330.4c1.7,0,3-0.2,4.2-0.9h0.2v22.4c0,2.8-0.2,4.6,2.2,6.6v0.2h-14.9v-0.2c2.3-2,2.2-3.8,2.2-6.6v-14.8
			c0-2.9,0.2-4.7-2.1-6.6v-0.2H673.7z M666.6,1323.5c0-3.3,2.5-6.1,5.8-6.1c3.2,0,5.8,2.6,5.8,5.8c0,3.4-2.7,6-6,6
			C669.2,1329.2,666.6,1326.5,666.6,1323.5z"/>
		<path d="M695.2,1333.2c1.8-2.4,4.3-3.6,7.4-3.6c3,0,5.5,1.2,7.4,3.6c2.3-2.6,5.5-3.6,9-3.6c2.6,0,5.4,0.7,7.5,2.3
			c2.6,2.1,3.1,4.4,3.1,7.6v12.4c0,2.8-0.2,4.6,2.2,6.6v0.2h-14.9v-0.2c2.3-2,2.1-3.7,2.1-6.6v-10.1c0-2.5,0.3-5.8-3.2-5.8
			c-3.6,0-3.4,3.4-3.4,5.8v10.1c0,2.8-0.2,4.6,2.2,6.6v0.2h-14.9v-0.2c2.3-2,2.1-3.7,2.1-6.6v-9.2c0-2.6,0.4-6.7-3.3-6.7
			c-3.8,0-3.3,4.2-3.3,6.7v9.2c0,2.8-0.2,4.6,2.2,6.6v0.2h-14.9v-0.2c2.3-2,2.1-3.7,2.1-6.6v-14.8c0-2.9,0.2-4.7-2.1-6.6v-0.2h8.5
			c1.4,0,2.8-0.3,4-0.9h0.2V1333.2z"/>
		<path d="M762.3,1357.6c-3,1.3-6.4,1.9-9.7,1.9c-4.2,0-8.9-0.5-12.3-3c-3.9-2.8-5.6-7.4-5.6-12.1c0-8.6,6.5-14.8,15.1-14.8
			c9.7,0,14.4,5.6,14.6,15.1h-19.1c0,5.3,3.6,9.1,9,9.1c3.4,0,7.3-1.5,10.3-3.1L762.3,1357.6z M754,1339.4c0-2.4-1.2-4.5-4.1-4.5
			c-2.7,0-4.2,2-4.5,4.5H754z"/>
		<path d="M54.8,1426.6c-3,1.3-6.4,1.9-9.7,1.9c-4.2,0-8.9-0.5-12.3-3c-3.9-2.8-5.6-7.4-5.6-12.1c0-8.6,6.5-14.8,15.1-14.8
			c9.7,0,14.4,5.6,14.6,15.1H37.8c0,5.3,3.6,9.1,9,9.1c3.4,0,7.3-1.5,10.3-3.1L54.8,1426.6z M46.4,1408.4c0-2.4-1.2-4.5-4.1-4.5
			c-2.7,0-4.2,2-4.5,4.5H46.4z"/>
		<path d="M72.6,1401.8c1.8-2.3,4.4-3.3,7.6-3.3c3.3,0,6.4,0.9,8.7,3.5s2.1,5.4,2.1,8.7v10.1c0,2.9-0.2,4.7,2.2,6.6v0.2H78.1v-0.2
			c2.3-1.9,2.2-3.7,2.2-6.6v-10.4c0-1.4,0-2.8-0.9-3.9c-0.7-1.1-1.9-1.7-3.2-1.7c-1,0-2.2,0.6-2.8,1.4c-0.9,1.2-0.9,2.9-0.9,4.2
			v10.4c0,2.9-0.2,4.7,2.2,6.6v0.2H59.8v-0.2c2.3-1.9,2.2-3.7,2.2-6.6v-14.8c0-2.8,0.2-4.6-2.2-6.6v-0.2H68c1.5,0,2.8-0.2,4.4-0.9
			h0.2V1401.8z"/>
		<path d="M116.5,1410.4c0-1.3,0.1-2.5-0.7-3.8c-0.7-1.2-2-1.8-3.3-1.8c-4.3,0-5.1,5-5.1,8.4c0,2.4,0.4,5.1,2,7
			c1.1,1.4,3,2.3,4.7,2.3h0.9l-2.9,5.2c-0.8,0.4-1.7,0.4-2.5,0.4c-7.9,0-13.5-6.8-13.5-14.5c0-7.9,5.2-15.1,13.6-15.1
			c2.5,0,4.7,0.7,6.9,2.1v-6.6c-0.2-2.9,0.1-4.7-2.2-6.6v-0.2h7.4c2,0,3.6,0,5.2-1h0.2v32.5c0,3.6,0,6.3,2.7,8.8v0.2h-13.3V1410.4z"
			/>
		<path d="M132.3,1420c3.3,2,7,3.4,10.9,3.4c1.7,0,4.4-0.4,4.4-2.7c0-4.1-14.7-4.4-14.7-12.7c0-3.3,1.7-5.8,4.6-7.4
			c2.8-1.7,6.1-2,9.3-2c3.2,0,6.4,0.4,9.5,1.2v6.4c-2.3-1.5-5.1-2.4-7.9-2.4c-1.2,0-3.6,0.3-3.6,2c0,1.9,2,2.4,3.5,2.8
			c2.2,0.7,4.7,1.4,6.7,2.6c2.6,1.7,4.7,4.1,4.7,7.2c0,8.2-9.2,10.1-15.7,10.1c-3.4,0-6.9-0.7-10.3-1.4L132.3,1420z"/>
		<path d="M209.5,1428.3l-2.5,0.2c-3.1,0-6-0.7-8.4-2.8c-2.9-2.7-2.6-5.5-2.6-9.2v-2l-2,0.9c-1.5,0.7-3.5,1.7-3.5,3.7
			c0,2.2,1.5,4,3.8,4c0.4,0,0.8-0.1,1.2-0.1l-2.6,5.4l-3.1,0.2c-2.1,0-4.8-0.4-6.6-1.5c-2.5-1.5-4.1-4.4-4.1-7.2
			c0-11.4,16.9-7.6,16.9-12.8c0-1.9-2.4-2.6-3.9-2.6c-2.5,0-5.5,0.9-7.7,2l2.9-7c2.5-0.7,5.1-0.9,7.7-0.9c2.9,0,6.1,0.6,8.5,2.3
			c3.1,2.3,3.4,5.9,3.4,9.5v4.9c0,4.1-0.2,7.5,5.1,7.6L209.5,1428.3z"/>
		<path d="M225.1,1401.8c1.8-2.3,4.4-3.3,7.6-3.3c3.3,0,6.4,0.9,8.7,3.5s2.1,5.4,2.1,8.7v10.1c0,2.9-0.2,4.7,2.2,6.6v0.2h-14.9v-0.2
			c2.3-1.9,2.2-3.7,2.2-6.6v-10.4c0-1.4,0-2.8-0.9-3.9c-0.7-1.1-1.9-1.7-3.2-1.7c-1,0-2.2,0.6-2.8,1.4c-0.9,1.2-0.9,2.9-0.9,4.2
			v10.4c0,2.9-0.2,4.7,2.2,6.6v0.2h-14.9v-0.2c2.3-1.9,2.2-3.7,2.2-6.6v-14.8c0-2.8,0.2-4.6-2.2-6.6v-0.2h8.2c1.5,0,2.8-0.2,4.4-0.9
			h0.2V1401.8z"/>
		<path d="M269.1,1410.4c0-1.3,0.1-2.5-0.7-3.8c-0.7-1.2-2-1.8-3.3-1.8c-4.3,0-5.1,5-5.1,8.4c0,2.4,0.4,5.1,2,7
			c1.1,1.4,3,2.3,4.7,2.3h0.9l-2.9,5.2c-0.8,0.4-1.7,0.4-2.5,0.4c-7.9,0-13.5-6.8-13.5-14.5c0-7.9,5.2-15.1,13.6-15.1
			c2.5,0,4.7,0.7,6.9,2.1v-6.6c-0.2-2.9,0.1-4.7-2.2-6.6v-0.2h7.4c2,0,3.6,0,5.2-1h0.2v32.5c0,3.6,0,6.3,2.7,8.8v0.2h-13.3V1410.4z"
			/>
		<path d="M303.3,1420c3.3,2,7,3.4,10.9,3.4c1.7,0,4.4-0.4,4.4-2.7c0-4.1-14.7-4.4-14.7-12.7c0-3.3,1.7-5.8,4.6-7.4
			c2.8-1.7,6.1-2,9.3-2c3.2,0,6.4,0.4,9.5,1.2v6.4c-2.3-1.5-5.1-2.4-7.9-2.4c-1.2,0-3.6,0.3-3.6,2c0,1.9,2,2.4,3.5,2.8
			c2.2,0.7,4.7,1.4,6.7,2.6c2.6,1.7,4.7,4.1,4.7,7.2c0,8.2-9.2,10.1-15.7,10.1c-3.4,0-6.9-0.7-10.3-1.4L303.3,1420z"/>
		<path d="M334.6,1405h-3.7v-4.2c5.3-0.4,9.6-5,10.1-10.2h4.2v8.8h6.8v7.5h-0.2c-1.7-1.9-2.5-1.8-5.1-1.8h-1.5v11.5
			c0,2.2-0.1,3.8,1.9,5.1c1.5,1,3.3,1,4.9,1.1l-2.7,5.2c-1.6,0.1-3.3,0.4-4.9,0.4c-2.5,0-5.7-0.7-7.7-2.4c-2.3-2.1-2.2-5-2.2-7.9
			V1405z"/>
		<path d="M382.5,1428.3l-2.5,0.2c-3.1,0-6-0.7-8.4-2.8c-2.9-2.7-2.6-5.5-2.6-9.2v-2l-2,0.9c-1.5,0.7-3.5,1.7-3.5,3.7
			c0,2.2,1.5,4,3.8,4c0.4,0,0.8-0.1,1.2-0.1l-2.6,5.4l-3.1,0.2c-2.1,0-4.8-0.4-6.6-1.5c-2.5-1.5-4.1-4.4-4.1-7.2
			c0-11.4,16.9-7.6,16.9-12.8c0-1.9-2.4-2.6-3.9-2.6c-2.5,0-5.5,0.9-7.7,2l2.9-7c2.5-0.7,5.1-0.9,7.7-0.9c2.9,0,6.1,0.6,8.5,2.3
			c3.1,2.3,3.4,5.9,3.4,9.5v4.9c0,4.1-0.2,7.5,5.1,7.6L382.5,1428.3z"/>
		<path d="M398.6,1401.8c1.8-2.3,4.4-3.3,7.6-3.3c3.3,0,6.4,0.9,8.7,3.5s2.1,5.4,2.1,8.7v10.1c0,2.9-0.2,4.7,2.2,6.6v0.2h-14.9v-0.2
			c2.3-1.9,2.2-3.7,2.2-6.6v-10.4c0-1.4,0-2.8-0.9-3.9c-0.7-1.1-1.9-1.7-3.2-1.7c-1,0-2.2,0.6-2.8,1.4c-0.9,1.2-0.9,2.9-0.9,4.2
			v10.4c0,2.9-0.2,4.7,2.2,6.6v0.2h-14.9v-0.2c2.3-1.9,2.2-3.7,2.2-6.6v-14.8c0-2.8,0.2-4.6-2.2-6.6v-0.2h8.2c1.5,0,2.8-0.2,4.4-0.9
			h0.2V1401.8z"/>
		<path d="M443,1410.4c0-1.3,0.1-2.5-0.7-3.8c-0.7-1.2-2-1.8-3.3-1.8c-4.3,0-5.1,5-5.1,8.4c0,2.4,0.4,5.1,2,7c1.1,1.4,3,2.3,4.7,2.3
			h0.9l-2.9,5.2c-0.8,0.4-1.7,0.4-2.5,0.4c-7.9,0-13.5-6.8-13.5-14.5c0-7.9,5.2-15.1,13.6-15.1c2.5,0,4.7,0.7,6.9,2.1v-6.6
			c-0.2-2.9,0.1-4.7-2.2-6.6v-0.2h7.4c2,0,3.6,0,5.2-1h0.2v32.5c0,3.6,0,6.3,2.7,8.8v0.2H443V1410.4z"/>
		<path d="M488.4,1428.3l-2.5,0.2c-3.1,0-6-0.7-8.4-2.8c-2.9-2.7-2.6-5.5-2.6-9.2v-2l-2,0.9c-1.5,0.7-3.5,1.7-3.5,3.7
			c0,2.2,1.5,4,3.8,4c0.4,0,0.8-0.1,1.2-0.1l-2.6,5.4l-3.1,0.2c-2.1,0-4.8-0.4-6.6-1.5c-2.5-1.5-4.1-4.4-4.1-7.2
			c0-11.4,16.9-7.6,16.9-12.8c0-1.9-2.4-2.6-3.9-2.6c-2.5,0-5.5,0.9-7.7,2l2.9-7c2.5-0.7,5.1-0.9,7.7-0.9c2.9,0,6.1,0.6,8.5,2.3
			c3.1,2.3,3.4,5.9,3.4,9.5v4.9c0,4.1-0.2,7.5,5.1,7.6L488.4,1428.3z"/>
		<path d="M504.6,1403c0.9-2.8,3.5-4.4,6.6-4.4l2.3,0.2v7.5c-1-0.2-2.2-0.5-3.2-0.5c-1.8,0-3.6,0.7-4.9,2.1c-1,1.2-0.9,2.2-0.9,3.8
			v9.3c0,2.8-0.2,4.7,2.1,6.6v0.2h-14.8v-0.2c2.3-1.9,2.1-3.7,2.1-6.6v-14.8c0-2.8,0.2-4.7-2.1-6.6v-0.2h8.6c1.4,0,2.8-0.2,3.9-0.9
			h0.2V1403z"/>
		<path d="M536.6,1410.4c0-1.3,0.1-2.5-0.7-3.8c-0.7-1.2-2-1.8-3.3-1.8c-4.3,0-5.1,5-5.1,8.4c0,2.4,0.4,5.1,2,7
			c1.1,1.4,3,2.3,4.7,2.3h0.9l-2.9,5.2c-0.8,0.4-1.7,0.4-2.5,0.4c-7.9,0-13.5-6.8-13.5-14.5c0-7.9,5.2-15.1,13.6-15.1
			c2.5,0,4.7,0.7,6.9,2.1v-6.6c-0.2-2.9,0.1-4.7-2.2-6.6v-0.2h7.4c2,0,3.6,0,5.2-1h0.2v32.5c0,3.6,0,6.3,2.7,8.8v0.2h-13.3V1410.4z"
			/>
		<path d="M572.6,1405h-3.7v-4.2c5.3-0.4,9.6-5,10.1-10.2h4.2v8.8h6.8v7.5h-0.2c-1.7-1.9-2.5-1.8-5.1-1.8h-1.5v11.5
			c0,2.2-0.1,3.8,1.9,5.1c1.5,1,3.3,1,4.9,1.1l-2.7,5.2c-1.6,0.1-3.3,0.4-4.9,0.4c-2.5,0-5.7-0.7-7.7-2.4c-2.3-2.1-2.2-5-2.2-7.9
			V1405z"/>
		<path d="M599.4,1399.4c1.7,0,3-0.2,4.2-0.9h0.2v22.4c0,2.8-0.2,4.6,2.2,6.6v0.2H591v-0.2c2.3-2,2.2-3.8,2.2-6.6v-14.8
			c0-2.9,0.2-4.7-2.1-6.6v-0.2H599.4z M592.3,1392.5c0-3.3,2.5-6.1,5.8-6.1c3.2,0,5.8,2.6,5.8,5.8c0,3.4-2.7,6-6,6
			C594.9,1398.2,592.3,1395.5,592.3,1392.5z"/>
		<path d="M620.9,1402.2c1.8-2.4,4.3-3.6,7.4-3.6c3,0,5.5,1.2,7.4,3.6c2.3-2.6,5.5-3.6,9-3.6c2.6,0,5.4,0.7,7.5,2.3
			c2.6,2.1,3.1,4.4,3.1,7.6v12.4c0,2.8-0.2,4.6,2.2,6.6v0.2h-14.9v-0.2c2.3-2,2.1-3.7,2.1-6.6v-10.1c0-2.5,0.3-5.8-3.2-5.8
			c-3.6,0-3.4,3.4-3.4,5.8v10.1c0,2.8-0.2,4.6,2.2,6.6v0.2h-14.9v-0.2c2.3-2,2.1-3.7,2.1-6.6v-9.2c0-2.6,0.4-6.7-3.3-6.7
			c-3.8,0-3.3,4.2-3.3,6.7v9.2c0,2.8-0.2,4.6,2.2,6.6v0.2h-14.9v-0.2c2.3-2,2.1-3.7,2.1-6.6v-14.8c0-2.9,0.2-4.7-2.1-6.6v-0.2h8.5
			c1.4,0,2.8-0.3,4-0.9h0.2V1402.2z"/>
		<path d="M688.1,1426.6c-3,1.3-6.4,1.9-9.7,1.9c-4.2,0-8.9-0.5-12.3-3c-3.9-2.8-5.6-7.4-5.6-12.1c0-8.6,6.5-14.8,15.1-14.8
			c9.7,0,14.4,5.6,14.6,15.1h-19.1c0,5.3,3.6,9.1,9,9.1c3.4,0,7.3-1.5,10.3-3.1L688.1,1426.6z M679.7,1408.4c0-2.4-1.2-4.5-4.1-4.5
			c-2.7,0-4.2,2-4.5,4.5H679.7z"/>
		<path d="M724.4,1422.5c0.6,0.2,1.2,0.3,1.8,0.3c5.4,0,7.3-4.2,7.3-9c0-5.2-2.1-9.5-7.7-9.7l2.9-5.2c0.9-0.3,1.8-0.4,2.8-0.4
			c3.3,0,7.1,1.5,9.4,3.9c2.5,2.5,3.9,6.4,3.9,10c0,4.7-1.8,9.1-5.6,12.2c-3.9,3.1-8.7,3.9-13.7,3.9c-4.4,0-9-0.7-13.3-1.7v-0.2
			c1.5-1.4,1.5-2.5,1.5-4.6v-28c-0.1-2.8,0.2-4.6-2.1-6.6v-0.2h8.1c1.7,0,3.1,0,4.4-1h0.2V1422.5z"/>
		<path d="M776.6,1426.6c-3,1.3-6.4,1.9-9.7,1.9c-4.2,0-8.9-0.5-12.3-3c-3.9-2.8-5.6-7.4-5.6-12.1c0-8.6,6.5-14.8,15.1-14.8
			c9.7,0,14.4,5.6,14.6,15.1h-19.1c0,5.3,3.6,9.1,9,9.1c3.4,0,7.3-1.5,10.3-3.1L776.6,1426.6z M768.2,1408.4c0-2.4-1.2-4.5-4.1-4.5
			c-2.7,0-4.2,2-4.5,4.5H768.2z"/>
		<path d="M810.6,1404.6h-2.8c1.5,1.4,2.3,3.3,2.3,5.4c0,3-1.6,5.3-3.9,7c-2.5,1.8-6.2,2.8-9.1,2.8c-0.8,0-3.1,0.2-3.1,1.4
			c0,0.5,0.6,0.7,1,0.7l6.3-0.4c2.5,0,5.6,0.4,7.8,1.7c2.6,1.5,4.4,4.2,4.4,7.3c0,3.9-2.8,6.8-6.2,8.3c-3.3,1.4-7.7,1.7-11.3,1.7
			c-2.9,0-6.2-0.2-8.9-0.9c-2.8-0.8-6-2.6-6-6c0-3.4,3.2-5.4,6.3-5.4c1.6,0,3.2,0.2,4.6,1c-1.4,0.2-2.3,1-2.3,2.6
			c0,3,3.4,3.4,5.7,3.4c3,0,7-1,6.6-4.6c-0.1-1.2-0.8-2.2-1.6-3.1c-1.1-1.2-2.8-1.4-4.4-1.4c-1.7,0-3.3,0.3-5,0.3
			c-1.5,0-2.6-0.5-3.5-1.7c-0.6-0.7-1.8-2.6-1.8-3.7c0-1,1.7-1.4,2.3-1.7l1.7-0.7c-4.2-1.5-7.3-4.6-7.3-9.3
			c0-7.1,6.5-10.8,12.9-10.8c1.6,0,3.3,0.3,4.8,0.7l13-0.4L810.6,1404.6z M796.1,1414.3c2.6,0,3.6-2.2,3.6-4.4
			c0-2.4-0.8-5.8-3.8-5.8c-2.7,0-3.6,2.4-3.6,4.7C792.4,1411.1,793.3,1414.3,796.1,1414.3z"/>
		<path d="M822.1,1399.4c1.7,0,3-0.2,4.2-0.9h0.2v22.4c0,2.8-0.2,4.6,2.2,6.6v0.2h-14.9v-0.2c2.3-2,2.2-3.8,2.2-6.6v-14.8
			c0-2.9,0.2-4.7-2.1-6.6v-0.2H822.1z M814.9,1392.5c0-3.3,2.5-6.1,5.8-6.1c3.2,0,5.8,2.6,5.8,5.8c0,3.4-2.7,6-6,6
			C817.5,1398.2,814.9,1395.5,814.9,1392.5z"/>
		<path d="M843.6,1401.8c1.8-2.3,4.4-3.3,7.6-3.3c3.3,0,6.4,0.9,8.7,3.5s2.1,5.4,2.1,8.7v10.1c0,2.9-0.2,4.7,2.2,6.6v0.2h-14.9v-0.2
			c2.3-1.9,2.2-3.7,2.2-6.6v-10.4c0-1.4,0-2.8-0.9-3.9c-0.7-1.1-1.9-1.7-3.2-1.7c-1,0-2.2,0.6-2.8,1.4c-0.9,1.2-0.9,2.9-0.9,4.2
			v10.4c0,2.9-0.2,4.7,2.2,6.6v0.2h-14.9v-0.2c2.3-1.9,2.2-3.7,2.2-6.6v-14.8c0-2.8,0.2-4.6-2.2-6.6v-0.2h8.2c1.5,0,2.8-0.2,4.4-0.9
			h0.2V1401.8z"/>
		<path d="M866.4,1420c3.3,2,7,3.4,10.9,3.4c1.7,0,4.4-0.4,4.4-2.7c0-4.1-14.7-4.4-14.7-12.7c0-3.3,1.7-5.8,4.6-7.4
			c2.8-1.7,6.1-2,9.3-2s6.4,0.4,9.5,1.2v6.4c-2.3-1.5-5.1-2.4-7.9-2.4c-1.2,0-3.6,0.3-3.6,2c0,1.9,2,2.4,3.5,2.8
			c2.2,0.7,4.7,1.4,6.7,2.6c2.6,1.7,4.7,4.1,4.7,7.2c0,8.2-9.2,10.1-15.7,10.1c-3.4,0-6.9-0.7-10.3-1.4L866.4,1420z"/>
		<path d="M897.7,1422.8c0-3.3,2.5-6,5.9-6c3.1,0,5.7,2.6,5.7,5.8c0,3.3-2.6,5.9-6,5.9C900.3,1428.5,897.7,1425.8,897.7,1422.8z"/>
	</g>
	<g>
		<path style="&st0;" d="M29,37c7.7,0,15.3,0,23,0c-0.8,9.1,1.9,14.8,3,22c3.5-5.1,1.9-15.5,4-22c6.7,0,13.3,0,20,0
			c-12.3,29.6-22.2,67.5-14,109c-7,0-14,0-21,0C51.4,102.9,39.6,68,29,37z"/>
		<path style="&st0;" d="M175,38c-2.6,15.3-2.6,35.7-4,53c-1.2,14.3,3.9,29.7,2,39c-1.5,7.3-10.3,10.5-10,17c-7,0-14,0-21,0
			c-0.5-6.7-10.1-9.8-12-18c-1.3-5.7,1.6-15.2,2-24c1.1-23.3-0.4-47-2-67c7,0,14,0,21,0c-0.4,29.2-7.2,65.2,1,91
			c4.4-5.5,3.6-14.6,4-23c1-21.7-1.2-50.2-1-68C159,36.7,166.3,38.7,175,38z"/>
		<path style="&st0;" d="M113,38c4.6,4.7,6.9,11.7,12,16c-4,15.3-5.2,37.7-4,58c0.4,6.2,3.2,13.9,2,19c-1.7,7.3-10.2,9.7-10,16
			c-8.4,0.1-16.4-0.2-23-2c-0.5-5.2-8.9-10.4-10-16c-0.5-2.6,1.5-6.6,2-11c1.3-11.5,1.7-29.9,1-44c-0.4-7.5-3-14.9-2-20
			c0.7-3.8,5.5-11,8-13C95.6,35.9,103.4,38.6,113,38z M98,88c0,14.8-0.2,31.6,5,41c5.2-19.2,3.9-54.3,1-75c-1,0-2,0-3,0
			C99.3,62.8,98,76.1,98,88z"/>
		<path style="&st0;" d="M284,39c1,40.3,7.1,75.6,16,108c-7.3,0-14.7,0-22,0c-2-3.3-0.5-10.1-1-15c-2,0-4,0-6,0
			c-4.1,2.7-0.7,9.1-1,14c-5.2,2.2-14.2,0.4-21,1c9.7-32,13.2-70.1,16-109C271.6,38.1,278.8,37.5,284,39z M274,115
			c2.6-3,0-14.6-1-14C274.9,106.3,269.1,113.2,274,115z"/>
		<path style="&st0;" d="M373,38c-1.6,15.7,5.4,31.9-14,32c-0.1-3.7,1.6-5.7,4-7c-7.9-1.4-1.6-17.1-5-23C361.7,38,369,39.7,373,38z"
			/>
		<path style="&st0;" d="M380,38c14.7,0,29.3,0,44,0c-0.7,8,0.9,13.8,1,21c-12.9-7.3-14.2,2-15,17c-1.1,19.2-0.1,56.8,2,71
			c-4.8,1.2-14.4-0.8-22,0c3-27.2,6.5-61.7,2-90c-3.8-2-7.6-0.2-12,0C380,50.7,380,44.3,380,38z"/>
		<path style="&st0;" d="M482,38c7.8,10.5,9,21.7,9,39c-5.8-0.8-12.9,1.3-16,0c0.8-5.7,2.8-18-1-22c-8.1,8.3-4.8,36.3,10,31
			c1.9,6.4,5.9,10.8,10,15c-4.9,9.9,0.9,21.1-1,30c-1.5,6.8-9.6,9.1-9,16c-7.3,0-14.7,0-22,0c-1.2-7.8-6.3-11.7-10-17
			c3.2-7.3,0.3-14.8,2-22c4,1.7,10.5,0.8,16,1c-0.4,7.5-4.7,18.7,2,22c6.6-5.5,4.3-22.9,0-29c-3.7-2-7.1,0.2-10-1
			c-1.5-6.8-5.5-11.2-9-16c5.3-10.5-1.5-21.8,1-31c1.8-6.7,11.5-8.6,11-16C470.7,38,476.3,38,482,38z"/>
		<path style="&st0;" d="M539,58c-4.9,0.9-5.1-2.9-10-2c-9,5.4-6,34.6-5,57c0.6,12.6-0.2,23.7,2,34c-7.3,0-14.7,0-22,0
			c2.3-23.6,8.7-66.2,0-91c-4.4-0.8-6,1.3-10,1c1.6-6.1-0.1-13.5,1-18c13.3-0.7,29.3,1.3,41-1C540.7,41,536,53.3,539,58z"/>
		<path style="&st0;" d="M574,38c-1,5.1,9.4,9.5,11,16c1.2,4.9-2.4,14.5-3,23c-0.9,13.7-0.2,31.7,1,42c0.5,4,2.5,9.5,2,12
			c-1.3,6.4-10.2,10.3-10,16c-8,0-16,0-24,0c1.5-5.6-7.5-10-9-17c-1.1-5.1,1.5-13,2-21c0.6-11.1,0.6-24,0-33c-0.5-7.6-3.8-16.3-3-21
			c1.2-6.7,9.5-10.9,10-16C556.5,38.2,565,37.9,574,38z M560,112c0.4,7,0.1,15.4,5,18c3.9-21.2,2.4-53.5,0-75c-1.3-0.1-1.4-1.3-3-1
			C559.1,67.5,559.1,95.9,560,112z"/>
		<path style="&st0;" d="M700,38c2.2,5.2,0.4,14.2,1,21c-19.2-12.3-15,23.5-14,45c0.9,18.7,0.2,33.2,2,44c-7.1-0.6-16.5,1.2-22-1
			c3.2-22.9,7.2-64.1,1-90c-3.9-2.2-7.2,0.2-11,1c0-6.3,0-12.7,0-19C672.7,36.3,686.6,40.2,700,38z"/>
		<path style="&st0;" d="M238,39c-0.3,6.8,9.2,8.6,11,15c2,7.2-3.1,17.2-1,25c-4.7-1.6-9.1-0.7-14,0c-0.3-8.7,1.2-19.2-4-23
			c-6.3,14.3-6.6,60.4,1,76c5.8-4.1,1.4-14.4,2-22c6.8,1.5,12.5-2.4,16-1c-3.9,8.9,1.8,17.1,0,24c-1.6,6.2-10,7.8-11,14
			c-19.3,4.3-22.5-7.5-30-15c1.6-16.5,3-43.2,2-63c-0.2-4.7-2.1-9.1-1-13c-0.2,0.7,10.6-16.3,12-17C225.8,36.8,232.3,40.6,238,39z"
			/>
		<path style="&st0;" d="M303,39c7.7,0,15.3,0,23,0c0.7,12.9,4.8,22.6,7,34c4.3-8.9-1.2-25.4,0-34c6.3,0,12.7,0,19,0
			c-3.2,34.8-4,73.5,0,108c-6,0-12,0-18,0c-2.7-22-9.3-40.1-14-60c-3,19.1,2.4,43.6,2,60c-6.3,0-12.7,0-19,0
			C306,112.9,305.2,70,303,39z"/>
		<path style="&st0;" d="M620,39c1.7,6.1,9.3,8.7,11,16c2.2,9.5-4,21.8,1,32c-4,5.6-9.6,9.7-12,17c-5,0.7-7.7-0.9-12-1
			c-0.7,16,1.7,28.9,2,44c-7.1-0.6-16.5,1.2-22-1c4-33.1,3.3-71.6,1-106C597.7,38.1,609.7,39.4,620,39z M608,86
			c9.5-1.6,5.7-20.4,5-29c-1.3-0.1-1.4-1.3-3-1C608,64.6,607.9,75.2,608,86z"/>
		<path style="&st0;" d="M706,39c7,0,14,0,21,0c-5,34.8-4.6,71.5,0,108c-2.9,1-16.3,2-22,0C709.5,112.2,708.7,75,706,39z"/>
		<path style="&st0;" d="M803,39c9.5,1.8,22,0.7,33,1c-1.8,6.6-0.4,16.4,0,20c-14.9-10.3-16.1,11.2-15,26c1.8,3.1,4.8-1.2,8,0
			c0.6,3.3-0.4,12.7,0,19c-3.2-0.2-4.4-2.3-8-2c0.8,10.2-2.8,24.8,5,28c5.5,1.2,5.8-2.9,10-3c-0.3,8-1.2,12.4,0,20
			c-9.1,1.2-23-0.8-35,0C807,114.1,803.8,72.7,803,39z"/>
		<path style="&st0;" d="M732,40c9.3,0,18.7,0,28,0c1,14.9,2.9,26.3,4,39c4.4-10,2-25.6,5-39c8.7,0.6,19.9-1.2,27,1
			c-3.1,33.3-2.4,76.8,0,107c-6.8-0.6-15.8,1.2-21-1c2.3-18,3.2-37.5,3-58c-4.5,17.5-7.3,36.7-8,58c-2.6,1.6-10.4,1.6-13,0
			c-0.6-17.1-4.5-38.6-6-58c-3.4,18-1.4,40.2,1,58c-4.2,0.6-15.6,0.4-21-1C736,112.6,735.3,74.6,732,40z"/>
		<path style="&st0;" d="M859,124c-0.6,8.9-1.5,16.3,0,25c-4.9-0.5-11.7,1-15-1c-0.1-8,2.4-15.8,0-23
			C848.5,122.4,855.2,125.4,859,124z"/>
		<path style="&st0;" d="M906,124c6.2-1,10.5,2.2,15,0c-0.5,9.4-1.3,15.9,0,25c-5,0-10,0-15,0C906.2,140.4,908.1,132,906,124z"/>
		<path style="&st0;" d="M890,125c4.4,6.2,0,15.2,2,24c-5,0-10,0-15,0c1.1-6.4,1.7-15.7,0-22C879.3,124.3,887.7,127.7,890,125z"/>
		<path style="&st0;" d="M323,240c-2.5,3.5-7.5,4.5-10,8c8,15.3,15.3,31.4,26,44c5.1-0.3,6.7-4,11-5c1.2,5.2,5.3,7.3,6,13
			c-33.2,20.1-66,40.6-99,61c-2.6-3.7-5.2-7.4-7-12c3.3-2.3,7.7-4,9-7c2.4-5.4,4.2-32.8,2-36c-5.3-7.7-30.1-13.1-38-5
			c-4.4-0.6-4.9-5.1-7-8c30.6-23.4,66.4-41.6,98-64C319.3,230.4,319.2,237.1,323,240z M294,257c-11.9,5.3-13.5,18.2-14,36
			c14.7,2.7,32.5,21,43,7C313.2,285.8,306.5,268.5,294,257z M262,275c-1.9,4.7-9.5,3.8-11,9c4.9,3.8,8.6,2.3,13,4
			C265.5,284,267.6,276.3,262,275z M277,333c5.1-6.6,15-8.4,20-15c-3-6.7-13-6.4-20-9C278.1,317.5,275.2,327.2,277,333z"/>
		<path style="&st0;" d="M726,274c-1.1,5.2-5.3,7.4-7,12c-5.8-0.8-8.2-5.1-13-7c-8.8,13.2-17.9,26.1-24,42c1,5,8.2,3.8,10,8
			c-0.3,6.1-4.9,7.8-6,13c-14.9-7.1-27-17-42-24c3.2-5.1,5.9-10.8,10-15c3.4,2.3,6,5.3,10,7c2.2-10,37.1-40.6,12-46
			c1.9-5.8,4.6-10.8,8-15C699.5,255.8,711.8,265.9,726,274z"/>
		<path style="&st0;" d="M156,379c-1.2,5.8-5.3,8.7-8,13c0.9,10.4,5,17.7,7,27c14.3,2.7,38.8,3.5,38-15c5.4,2.9,10.2,6.4,15,10
			c-14.6,25.1-32.6,46.7-47,72c-5.4-0.6-7.3-4.7-11-7c11.2-15.1,1.9-26-3-41c-3.3,0.6-4.4,2-3-2c-9.4-0.8-16,1.3-25,1
			c-2,1.7-0.3,7-3,8c-1.8-0.2-0.6-3.4-2-4c-2.5,1.8-3.8,4.9-5,8c-4.2-2.8-9.6-4.4-12-9c17.4-20.6,30.5-45.5,46-68
			C149.5,372.1,152.4,376,156,379z M131,422c3.4-0.3,8.1,0.8,10-1c0.5-2.8,0.4-10.2-5-10C133.7,414,130.8,416.5,131,422z M162,437
			c2,2.7,2.3,9.4,5,14c5.9-2.8,7.7-9.7,10-16C171.2,434.9,165.8,435.2,162,437z"/>
		<path style="&st0;" d="M831,374c13.8,26.5,26.4,54.3,40,81c-4.6,2.7-9.1,5.6-15,7c-0.2-4.1-3-5.6-3-10c-16.8,3.2-28.5,11.5-43,17
			c-0.4,6.1,4.3,7,4,13c-5.1,1.3-8.8,3.9-13,6c-15.9-22.8-25.4-53.1-38-74c4.4-1.6,6.6-5.4,12-6c0.9,5.4,4.4,8.3,6,13
			c13.7-10.1,27.3-14.5,43-23c0.4-7.8-4.6-10-5-17C822.4,378,827.7,377,831,374z M833,416c-8,5-38.1,16.2-40,22
			c-1.2,3.5,4.4,9.5,8,14c12.7-6,27.3-10,37-19C839.6,427.8,832.4,423.5,833,416z"/>
		<path style="&st0;" d="M606,416c1.5,7.5,1.4,30.5-3,32c-2.7,0.5-0.8-8.8,0-14c0.8-5.7,2.6-12.1,3-16C606,417.3,606,416.7,606,416z
			"/>
		<path style="&st0;" d="M597,417c1.1,14.4-2.5,32.8-4,48C591,449.6,595,431.7,597,417z"/>
		<path style="&st0;" d="M600,450c0.2,4.4,2.1,13.7-1,17C595.9,465.1,597.8,453,600,450z"/>
		<path style="&st0;" d="M610,455c2,2.7,1.5,11.5-1,13c-1.4-1.6-2.5-3.5-5-4c0.8-2.9,3.2,0.6,5,0C609.2,460.9,608.3,456.7,610,455z"
			/>
		<path style="&st0;" d="M561,504c1.1,8.7,3.1,25.5-2,29C561.1,521.4,553.2,509.4,561,504z"/>
		<path style="&st0;" d="M830,562c-0.8,4.4,1.3,6,1,10c12.5,3.3,35.5,2.9,48,0c2.3-1.1,0.4-6.3,1-9c5.6,0.1,9.2,2.1,15,2
			c4.3,32.7,0.9,75.4,2,116c-4.7,0-9.3,0-14,0c-2.9-4.2,1.4-10.4-2-13c-14.6-1.7-30.5-2.1-47-2c-3.4,2.6-3.2,8.8-3,15
			c-5.3,0-10.7,0-16,0c-1.9-35.7-1.4-82.9,0-119c0.8-0.2,1-1,2-1C822,560.7,826.2,561.2,830,562z M830,593c0,6.7,1.3,12.1,2,18
			c13.8,1.6,34.2,1.6,48,0c0-6.3,0-12.7,0-19C866.2,591.9,845,591.2,830,593z M833,631c-1.6,5.3-1.6,15.7,0,21c13.7,0.5,33.2,4,45,0
			c2.2-5.2,0.4-14.2,1-21C863.7,631,848.3,631,833,631z"/>
		<path style="&st0;" d="M833,564C834.2,558.8,830.8,573.5,833,564L833,564z"/>
		<path style="&st0;" d="M65,564c11.5-1.1,12.2,8.5,21,10c-0.2,2.8-1.8,4.2-2,7c8.1,3.9,18,6,29,7c4.9,10.7,12.6,18.8,17,30
			c-11.1-0.2-18.1-13.3-28-14c-8.5-0.6-14.3,7.9-23,11c0,4.7,0,9.3,0,14c13,5.2,31.1-0.5,47,1c-1.3,5-2.1,10.6-3,16
			c-13.3-1.1-31.1-2.2-43,1c-2.3,2.1,0,8.6-2,11c-4.7,0-9.3,0-14,0C62.4,627.2,64.4,598.5,65,564z M79,596c2.3,0.3,3.8-0.2,5-1
			c1.1-4.5-3.1-3.6-5-5C79,592,79,594,79,596z"/>
		<path style="&st0;" d="M533,568c2.3,0.7,0.4,5.6,1,8C532.8,574.1,531.5,569.6,533,568z"/>
		<path style="&st0;" d="M525,570c1,0,2,0,3,0c-0.2,4.8,1,11-2,13C523.5,579,524.5,573,525,570z"/>
		<path style="&st0;" d="M533,578c0.7-2.6,1.1,3.5,1,4C533.7,583.1,532.1,581.8,533,578z"/>
		<path style="&st0;" d="M531,584c-6.9,6.4-13.7,13-19,21c6.1,0.1,13-7.7,19-11c-1.3,7-13.4,12-20,17c-0.4-3.6-1.8-6.2-3-9
			C515.4,593.6,521.3,589.7,531,584z"/>
		<path style="&st0;" d="M844,598c0.1-2.2,4.2-0.4,6-1C849.9,599.2,845.8,597.4,844,598z"/>
		<path style="&st0;" d="M306,610c0.9,1.1,3.7,0.3,3,3C306.8,613.2,305.8,612.2,306,610z"/>
		<path style="&st0;" d="M258,612c0.9-2.9,2.5,1.3,5,0C262.7,614.3,258.6,612.6,258,612z"/>
		<path style="&st0;" d="M521,612c5.1,9.6,1.4,22.4,4,35c-4-0.6-4,2.6-8,2c-0.6-10.7-2.7-20-2-32c4.5,8.1,1,18.2,4,28
			C525.2,639.2,518.8,623.4,521,612z"/>
		<path style="&st0;" d="M482,635c-4.1,2-9.7,0.7-11-3C471.3,623,487,626,482,635z"/>
		<path style="&st0;" d="M297,642c1.2,0.4,2.1,1.3,2,3c-1,0-2,0-3,0C296.5,644.2,297,643.4,297,642z"/>
		<path style="&st0;" d="M519,662c-7.7,7.6-18.8,11.8-29,17c-0.4,10.6-0.4,21.6-5,28c-1-11.9,4.8-20.6,3-30
			C497.9,671.5,506.7,665.1,519,662z"/>
		<path style="&st0;" d="M452,670c1.8-1.8,5.6,3,5,7C453.9,676.1,454.5,671.5,452,670z"/>
		<path style="&st0;" d="M475,673c6.2,1.8,3.6,12.1,2,17C474.9,684.4,476.5,677.1,475,673z"/>
		<path style="&st0;" d="M455,684c2.3,1.4,0.4,7,1,10C455.1,691,450.9,686,455,684z"/>
		<path style="&st0;" d="M483,684c4.7,4-2.1,13-2,19C475.5,697.8,483.9,691,483,684z"/>
		<path style="&st0;" d="M412,702c3.9,1.4,1.2,9.5,2,14c-1.6,5-0.8-8.1-1-11C412.5,704.2,412,703.4,412,702z"/>
		<path style="&st0;" d="M478,712c2.4,4.4-2.2,10.5-1,17c-3.2,0.2-1.6-4.4-5-4C471.7,718.3,477.5,717.8,478,712z"/>
		<path style="&st0;" d="M428,721c3,1.5-1.3,3.9,0,7C425.9,727.4,427.1,721.8,428,721z"/>
		<path style="&st0;" d="M482,729c1.6-1.5,1.6,11.2,0,13C479,738.6,483.3,734,482,729z"/>
		<path style="&st0;" d="M267,733C270.5,737.7,262,737,267,733L267,733z"/>
		<path style="&st0;" d="M105,752c8.5-3.2,14.3-9.1,23-12c0.1,4.5,2.4,6.9,5,9c-5.3,6.7-14.4,9.6-22,14c1.6,5.1,3.9,9.5,7,13
			c11-1,15.7-8.3,25-11c-0.8,3.1,10.3,9.5,10,12c-0.9,7.4-21.3,6.7-25,15c1.1,5.2,7,5.7,7,12c9.4-5,21.7-7,27-16
			c7.2,1.8,12.7,5.3,16,11c-11.2,7.2-25.3,11.4-35,20c0,3,2.6,3.4,3,6c17.8-1.6,36.6-2,53-5c-0.1-6.7-8.1-13.8-12-20
			c13.2,2.2,31.9,7.4,34,24c-6.9-0.3-11.1,7.4-18,9c-13.5,3.1-31.7-2.8-48,3c-1.4,3.8,2.8,9.6,5,13c-1.7,5-7.2,6.1-8,12
			c-26-34-42.7-77.3-67-113C92.1,738.2,101.9,739.6,105,752z"/>
		<path style="&st0;" d="M480,747c4.2,1-1.2,6.3,5,6c-1.3,7.7-2.2,15.8-3,24C479.7,768.6,481.9,755.8,480,747z"/>
		<path style="&st0;" d="M454,751c6.6,16.9,0.3,38.2-2,55C452.9,791.2,454.6,767.9,454,751z"/>
		<path style="&st0;" d="M226,752c1.7,1.6,2.2,4.5,2,8C226.3,758.4,225.8,755.5,226,752z"/>
		<path style="&st0;" d="M793,754c3.3,3.3,8.1,5.2,11,9c0.3,5.7-7.2,9-6,16c11,0.3,39.1,39.8,44,12c5.7,0.6,9.1,3.5,13,6
			c-18.4,27.3-37,54.4-55,82c-5.9-1.1-8-6-13-8c-0.7-3.1,1-3.6,1-6c-8.1-12.5-16.1-25.2-24-38c-7.4,3.9-10.2,12.5-16,18
			c-5.9-1.1-8.3-5.7-14-7C752.7,809,774.2,782.9,793,754z M774,815c15.9,1.5,32,7.1,45,5c-2.6-1.4-6.3-1.7-5-7c2.9,1.4,3.8,4.9,8,5
			c-9.1-11.5-21.7-19.6-37-25C784.4,803.4,776.1,806.1,774,815z M801,853c3.5-5.5,7.8-10.2,10-17c-8.9-3.8-19.1-6.2-29-9
			C787.4,836.6,790.4,848.6,801,853z"/>
		<path style="&st0;" d="M500,779c-0.6,9.7-6.6,22.7-15,28C491.3,798.9,496.5,789.8,500,779z"/>
		<path style="&st0;" d="M402,794c2.4,3-13.2,9.9-19,8C389.8,799.8,397.6,798.6,402,794z"/>
		<path style="&st0;" d="M413,797c0.1,4.5-4.6,4-8,5C407.5,800.1,409.5,797.9,413,797z"/>
		<path style="&st0;" d="M504,801c2.3,1.4,0.4,7,1,10C503.4,808.2,502.6,804.1,504,801z"/>
		<path style="&st0;" d="M188,812c-0.9,1.5-2.5,2.2-5,2C183.7,812,186,809.9,188,812z"/>
		<path style="&st0;" d="M496,832c4.6,15.1,3.3,36,15,44c-1.4,0.3-0.8,2.5-1,4C499.7,869.6,495,853.7,496,832z"/>
		<path style="&st0;" d="M508,859c3.3,1.4,3.9,5.4,4,10C509.3,867.1,507.7,864,508,859z"/>
		<path style="&st0;" d="M186,866c1.4,3.2,0.9,8.4,1,13c-2-2-1.7-6.3-5-7c-1.7,5.2,2.3,16.3-4,19c-5.7-1.6-1.9-12.8-3-19
			c3.8,1.9-0.4,11.7,5,12C182.2,877.9,174.9,866.2,186,866z"/>
		<path style="&st0;" d="M487,879c2.2,0.1,2.1,2.5,2,5C486.8,883.9,486.9,881.5,487,879z"/>
		<path style="&st0;" d="M153,899c1.5,0.5,2.5,1.5,4,2C156.4,903.4,151.9,901.5,153,899z"/>
		<path style="&st0;" d="M500,903c0.7,0,1.3,0,2,0c1.9,8.5-4.4,23.8-3,36c0.6,5.6,4.9,9.2,3,14c-6.6,0.1-4.4-16.3-4-23
			C498.6,919.9,501.7,910.6,500,903z"/>
		<path style="&st0;" d="M538,910c2.8,11.6,7.4,26.5,9,36C537.4,940.6,540.8,922.2,538,910z"/>
		<path style="&st0;" d="M644,911c0.7,0,1.3,0,2,0c19.8,14.2,35.6,32.4,56,46c3.6,0.6,2.9-3.1,6-3c4.8,3.9,8,9.3,11,15
			c-11.7,5.9-34.7,16.3-50,24c-5.8,2.9-13.9,9.8-19,9c-6.2-0.9-8.4-10.1-12-15c2.2-2.1,5.9-2.7,8-5C647.3,955.1,642.3,935.9,644,911
			z M660,978c10.6-3.4,19.3-8.7,27-15c-9.5-6.5-16.8-15.2-28-20C658.9,950.9,658.6,971.5,660,978z"/>
		<path style="&st0;" d="M276,913c-0.4,3.3-5.8,1.6-9,2C265.6,913.9,272.9,913,276,913z"/>
		<path style="&st0;" d="M505,933c1.5,0.6,2.2,10.5,4,14C505.7,944.3,504.6,939.4,505,933z"/>
		<path style="&st0;" d="M282,943c3.1-0.5,3.2,2.1,3,5C283.2,947.1,281.5,946.1,282,943z"/>
		<path style="&st0;" d="M476,945c-2.2,2.8-7.1-0.1-10,0C468.2,941.6,471.5,946,476,945z"/>
		<path style="&st0;" d="M380,945c3.1,2.8-1,6.9,0,11C376.9,953.2,381,949.1,380,945z"/>
		<path style="&st0;" d="M269,947c0.3-1.4,2.5-0.8,4-1c0,2.4,1.7,2.9,1,6C271.4,951.3,271.9,947.4,269,947z"/>
		<path style="&st0;" d="M277,946c5.2,2.1,3.7,9.2,4,13C277.6,956.8,279.1,949.6,277,946z"/>
		<path style="&st0;" d="M475,952c4.5-1.9,15.2-1.2,18,2C487.9,952.5,480.1,953.5,475,952z"/>
		<path style="&st0;" d="M474,957c-4.5,2.5-18.6,0.4-21,0C445.7,955.7,470.4,955.6,474,957z"/>
		<path style="&st0;" d="M432,962c0,3.3,0,6.7,0,10c-4.8-1.6-9.5,3.2-13,6c-1.6-5,8.7-6.6,12-10c-0.2-0.8-1-1-1-2
			c-3.3-2.6-8.6,1.4-10,4C417.6,964.9,427.1,963.1,432,962z"/>
		<path style="&st0;" d="M521,962c-10.8,4.4-22.9,17.6-33,16c-1.4,5.6-8.2,5.8-14,7c0.5-2.9,3.5-3.1,3-7c-4.4-1.4-17.4-2.8-19,2
			c-10.4,0.7-15.1-4.2-23-6c-0.2-3.9,0-7.4,1-10C463.7,961.7,495.4,964,521,962z"/>
		<path style="&st0;" d="M284,973c0.7-2.6,1.1,3.5,1,4C284.7,978.1,283.1,976.8,284,973z"/>
		<path style="&st0;" d="M432,979c-1.8,3.2-7.8,2.2-11,4C423.3,979.5,426.8,977,432,979z"/>
		<path style="&st0;" d="M269,997c2.1-5.2,5.2-9.5,5-17C276.1,985.4,273.4,994.7,269,997z"/>
		<path style="&st0;" d="M565,1013c-1.7,2-4.7,2.7-8,3C558.8,1014.2,562.7,1011.2,565,1013z"/>
		<path style="&st0;" d="M569,1018c-2.4,3.2-7.7,3.6-13,4C558.9,1019.3,564.4,1019.1,569,1018z"/>
		<path style="&st0;" d="M573,1025c-3.4,2.8-13.1,3.9-17,3C560.7,1026.4,568.4,1023.4,573,1025z"/>
		<path style="&st0;" d="M578,1032c-4.3,3.5-16.9,6.7-22,3C562.8,1033.5,569.7,1032,578,1032z"/>
		<path style="&st0;" d="M245,1065c0.2-2.5,3.4-0.3,4,0C248.8,1067.5,245.6,1065.3,245,1065z"/>
		<path style="&st0;" d="M375,1064c2.2,1.9-2.3,5.6-5,6C371,1067.4,374,1066.6,375,1064z"/>
		<path style="&st0;" d="M39,1075c3.7-2.3,11.7-0.3,17-1C52.3,1076.3,44.3,1074.3,39,1075z"/>
		<path style="&st0;" d="M596,1085c1.3,3.4,5.7,3.6,10,4c-14.8,1.2-35.6-6.6-50-3c7.2-10.6,30.1,1.8,39-1c0.4-7.7-8.8-5.8-15-7
			c9-2.9,25.4,3.9,37,5c3.7-0.6,13.7,0.7,5,1C611.7,1086.7,600.3,1078.9,596,1085z"/>
		<path style="&st0;" d="M310,1080c5.7,1.4,0.4,3.7,0,7c0.2,0.8,1,1,1,2c2.3,0.3,3.8-0.2,4-2c2.4,1.5-1.6,5-4,5
			C309.2,1088.4,306.3,1083.8,310,1080z"/>
		<path style="&st0;" d="M55,1088c0.1-2.2,4.2-0.4,6-1C60.9,1089.2,56.8,1087.4,55,1088z"/>
		<path style="&st0;" d="M640,1093c-10,3.7-20.3,6.9-32,4c4.5-2.8,15.7,1.1,19-3c-1.1-5.3-11.4-1.2-15-4
			C623.8,1092.2,636.7,1085.3,640,1093z"/>
		<path style="&st0;" d="M432,1091c-1.6,2.1-7,0.3-9,2c-1.7,7.7,13.8,5,0,6c-1.4-1.3-1-4.3-1-7c-1,0-2,0-3,0
			C423.2,1090,427.3,1090.5,432,1091z"/>
		<path style="&st0;" d="M451,1092c1.8,3.5-7.6,4.4-12,5C441.9,1094.2,448.7,1095.3,451,1092z"/>
		<path style="&st0;" d="M389,1094c-2.4,1.6-10.1,3.2-12,2C377.4,1091.7,385.4,1095,389,1094z"/>
		<path style="&st0;" d="M580,1099c-5,2-12.8-1.8-19-2C565.7,1090.5,573,1098.8,580,1099z"/>
		<path style="&st0;" d="M38,1096C31.7,1099.1,27.3,1094.7,38,1096L38,1096z"/>
		<path style="&st0;" d="M224,1099c-1.1,2.2-6.3,8.3-7,2C221.1,1102.1,220.9,1098.9,224,1099z"/>
		<path style="&st0;" d="M674,1100c-6.3,3.7-23.4,0.9-35,1C648.1,1096.9,662.9,1099.9,674,1100z"/>
		<path style="&st0;" d="M395,1100c-4.2,2.9-8.4,2.4-14,2C380.9,1100.5,390.1,1099.8,395,1100z"/>
		<path style="&st0;" d="M548,1104c0.4-2.9,4.7-2,6-4c7,4.3,17.6,5.1,27,7c1.7,0,3.3,0,5,0c2.5-0.1,1.7,1.2,0,1
			C571.3,1108.7,561.6,1104.4,548,1104z"/>
		<path style="&st0;" d="M638,1101c-1,2-4.4,1.6-4,5c-1.9-2-20.6-0.1-13-2C626.4,1102.7,631.6,1101.2,638,1101z"/>
		<path style="&st0;" d="M383,1108c-5.2,5.5-12.5,8.9-22,10C367.4,1113.7,375,1110.7,383,1108z"/>
		<path style="&st0;" d="M470,1111c-8.2,3.4-20.9,2.4-31,4C445.5,1108.9,462.2,1107.1,470,1111z"/>
		<path style="&st0;" d="M540,1108c5,1.4,11.1,1.6,16,3C552.7,1111.9,541.9,1111.8,540,1108z"/>
		<path style="&st0;" d="M418,1113c-13.9-2.3-25.3,3.2-38,5C387.1,1111.3,406.7,1106.1,418,1113z"/>
		<path style="&st0;" d="M637,1113c-19.1-1.8-36,4-53,1C600.3,1113.1,624.6,1108.4,637,1113z"/>
		<path style="&st0;" d="M488,1113c-10,6-23.4,8.6-40,8c-6.8,0.6-4.5-1.8,1-1c1.3,0,2.7,0,4,0C465.7,1118.7,476.2,1115.2,488,1113z"
			/>
		<path style="&st0;" d="M271,1118c-1.6,1.7-4.5,2.2-8,2C264.8,1118.5,267.8,1118.1,271,1118z"/>
		<path style="&st0;" d="M647,1118c-8.1,3.3-21.3,1.4-31,3c-1.8,0.3-2.1-0.9-1-1C621.7,1115.4,636.9,1119.3,647,1118z"/>
		<path style="&st0;" d="M577,1121c-0.7-1.1,29.2-0.1,19,1C594,1122.2,578.4,1123.1,577,1121z"/>
		<path style="&st0;" d="M219,1125C222.8,1121.2,233.1,1126.5,219,1125L219,1125z"/>
		<path style="&st0;" d="M232,1124c1.4-2.3,7-0.4,10-1C240.6,1125.3,235,1123.4,232,1124z"/>
		<path style="&st0;" d="M234,1129c-4,3.3-13.6,1.1-19,3C218.6,1128.3,227.4,1129.8,234,1129z"/>
		<path style="&st0;" d="M551,1089c-13.1,3-43,16.8-69,15c-10.8-0.7-25.5-4.3-27-13c-2.2-13.3,10.3-16.3,15-25
			c-16.6,0.1-32.2-2.3-47,0c-9.8,1.5-29.6,13.4-42,18c-8,3-15.1,7.6-25,9c-5.1,0.7-10.4-1-15,0c-8.4,1.9-16,12.2-25,12
			c-9.5-0.2-12.5-8.8-20-12c1.4-8,2.5-21.3,3-27c-2.4,2.4-11.3,0.1-8,3c-3.7,14.7-24.9,17-44,28c-11.1,6.4-19.6,17.6-29,25
			c-4.1,3.3-11.4,5.8-17,10c-6,4.5-9.2,10.6-14,12c-3.4,1-18,0.6-22-1c-13.4-5.4-18.7-34.9-9-52c7.1-12.5,24.9-13.2,31-24
			c-9.3-4.3-22-2-35-2c-38.7,0-84.4,0-123,0c-0.1-47.3-0.4-95.3,2-143c1.2-24.4-3-49.3-3-74c0-61.5,2.8-126.7,3-192
			c0.1-27.5-1-56.6-1-86c0-56.6,1.6-104.2,0-160c-0.6-20.6-4.1-41.2-2-59c0.9-7.6,4-19.2,4-31c0-48.4-2.2-100.6,0-151
			c77.5-7.1,159.9,10.5,241,1c3.7-0.4,7.2-2.7,11-3c9-0.8,18.1,3,27,3c27,0.1,53.8-2.9,81-3c10.3,0,20.7,2.4,31,3
			c11.1,0.6,22-1,33-1c21.6,0,43.2,2.6,65,2c142.4-3.9,284.9-1.5,426,5c1.9,56.9-1,113.4-1,171c0,56.8-0.2,116.5-3,173
			c-1.5,31.1-4.5,60.8-2,91c2.8,34.5,5.6,70.7,4,104c-0.6,12.1-4,23.8-5,36c-5.1,60.6,1.7,130.9-2,192c-2.5,42,5.3,83.3-1,122
			c-128.2,3.4-253.1-5.1-380,1c-1.6,9.7-1.8,20.9-7,27c2.8-0.2,4.2-1.8,7-2c1.2,1.3-6,5.5-10,7c-20.1,7.4-57.8,14.3-82,7
			c1.4-4,11.1,1.7,18,2c20.9,1,54.3-9,68-17C551,1089.7,551,1089.3,551,1089z M285,821c-10.1,1.9-17.7,4.6-26,2
			c-12.5-3.9-19.2-18.7-21-29c-2.6,3.1,2.4,5,1,10c-24.3,6.4-41-4.7-56-11c-20.1-8.4-23-13.6-35-29c-4.7-6-10-9.3-13-16
			c-2.7-6-5.3-14.1-7-22c-1.9-9-4.3-18.4-6-28c-5-27.9,7-54.6,13-82c-9.5-8.8-12.8-23.8-23-32c-10.4-0.3-17.4-3.9-25-7
			c-0.5-3.1,3.1-2.3,2-6c-12.2,0.9-11.1-11.6-23-11c-2.7-16-16.9-20.5-19-37c4.2-7.8,12-13,21-18c9.5-5.4,17.1-9.2,21,0
			c12.1-15.2,20.6,4.6,29,7c10.1,2.9,17.7-3.7,25-6c30.2-9.5,85-18.7,118-7c2.9,1,5.6,4.4,9,5c6.6,1.2,10.6-1.9,18-1
			c14,1.6,32.5,9.4,40,16c6.3,5.6,7.5,14.3,16,18c4.6,2,10.8,0.7,16,2c9.2,2.2,18.8,10,29,15c27.4,13.4,51.9,19.3,56,48
			c4.6,2.8,6.7-5.5,13-8c7.7-3,17.8-1,24-6c1.4-8.5,1.4-20.7,2-27c5.9-6.4,18.1-5.9,21-14c4.6-12.9-7.9-37.9-5-50
			c9.6-5.1,19.7-9.6,27-17c-1.7-14.9-2.8-30.6-4-46c55.4-61.3,89.6-143.7,131-219c-57.3-20-107.5-38-174-38c-29.3,0-50.6,2.7-75,7
			c-7.8,1.4-16.3,1.7-24,3c-8.4,1.5-18.2,6.9-28,10c-26.9,8.6-61.2,20.4-81,34c-3.7,2.5-5.8,6.7-9,9c-12.5,9-27.7,14.6-40,24
			c-8.8,6.7-17,14.4-26,21c-9.3,6.8-19.2,12.6-27,21c-40.6,43.7-73.9,91.8-99,150c-3.4,8-7.8,16.9-11,26c-3.3,9.3-2.7,20.5-7,30
			c-1.5,3.4-6.4,6.7-7,11c-0.8,5.3,3.8,9,4,15c0.3,10.1-4.8,22-6,33c-4.3,37.8-2.5,90.2,5,123c5.3,23.3,5.8,46.4,12,69
			c16.7,30.1,30.1,66.6,50,91c21.2,26,33.8,59.7,65,75c-2.6-8.8,1.2-13.2-1-18c-3.6-7.8-18.7-8.5-22-15c-1.8-3.6-2.7-24.7-1-31
			c3.8-14.4,23.8-15.1,37-21c14.1-6.3,31.5-17.9,46-22c9.2-2.6,17.1-3.7,20,3c-17.6,7.5-34.9,10.9-51,18c-4,1.8-6.9,5.5-11,7
			c-8.7,3.1-21.5,3-29,11c-2.4,10.2-4.9,33.9,5,34c-4.4-0.6-3.6-11.7-2-15c5.1,4.2,6.3,12.4,12,16c4-1.7,5.5-5.9,11-6
			c6.8-15-5.3-25.1-6-35c4.9,7.4,14.6,14.9,15,25c0.4,11-9.5,14.3-11,23c21.8-6.7,9.6-33.9,5-47c8.8,6.4,16.2,17.6,12,34
			c6.1,4.3,15.8,4.6,24,2c15.4,7.4,42.5-2.7,50-17c6.7-12.8,2.8-30.4,4-48c14.9-8.4,38.7-8,49-21C322.1,814.5,302.2,817.7,285,821z
			 M409,992c8.2-5.5,16.6-8.6,27-10c15.9-2.1,29.8,7,44,6c19.7-1.4,30-26.4,48-19c0.2-3.9,4.3-8.7,11-9c5.8,12.7,20.8,10.5,22,25
			c0.9,11.4-12,25.6-13,39c-0.2,2.6,0.3,9,1,12c4.6,19,23.3,8.4,43,3c41.1-11.3,79.7-20.7,111-38c17.6-9.8,33.1-21.7,47-32
			c7.4-5.4,15-11.2,22-17c9.4-7.8,17.7-18.8,29-22c15.4-18.9,34.7-41.2,47-63c4.6-8.2,9.4-15.3,14-23c5.7-9.5,8.4-20.4,12-32
			c2.7-8.5,9.2-17,13-25c4.4-9.2,8.1-18.2,12-27c13.5-30.7,19.5-61.2,23-100c2.7-29.7,4.8-57.5,2-83c-5-45.8-19.4-85.6-32-120
			c-20-54.7-51.5-107.8-88-147c-13.8-14.8-28-30.9-41-38c-2.8-1.5-6.2-1.4-9-3c-4.8-2.8-7.9-8-13-11c-6.3-3.7-13.4-6.1-20-10
			c-20.3-12.1-42.8-25.2-66-32c-1,3.6,4.9,0.5,3,5c-15.5,33.6-31.4,75.1-45,115c-1.8,5.2-5.7,9.5-7,15c-2,8.4-2,16.5-4,25
			c-6,26.1-10.7,48.1-14,68c-1,6.2,0.4,12.1-2,17c-6.1,12.4-32.7,17.9-39,28c1.2,9.1,9,30.9,6,39c-3.9,10.6-29.4,12.5-33,25
			c-2,6.9,4.5,18.6,2,27c-2.4,8.1-20.6,13.8-21,22c-0.2,4.7,7.2,10.9,9,16c10.6,30.3-11.8,48.6-39,48c-0.7-6.7-2.7-11.9-3-19
			c3.8,1.5,6.6,4,11,5c4.6-7.4,17.6-8.1,19-17c1.3-8.2-8.5-19.8-13-27c-8.3,2.7-17.6,4.4-26,7c-1.2,17,7.7,32.9,10,50
			c1.4,10.6,2.3,22,2,33c-0.2,8.1-5,17.9-4,26c0.4,3.3,4,7.9,5,11c4,13,5.7,29.6,4,43c-0.8,6-4.6,11.5-4,16c0.9,6.5,7.9,13.5,11,20
			c3.2,6.8,8.4,15.7,9,22c1.3,14-6.7,32.3-11,47c-5.8,20.2-16.2,34.5-15,58c-17.7,6.6-32.5,16.1-50,23
			C415.1,974.1,409.3,984.6,409,992z M213,538c4.8-17.9,20.4-24.9,37-31c-4.9-2.8-10.7,1-15,2c-1.1-3.7,3.8-1.6,3-5
			c-41.7-9.5-74.8,7.2-105,16c6.2,3.2,14.8,3.9,20,8c14.7-10,44.3,0.3,40,19c5.5,1,11.7,2.6,17,1c-2.7-16.2,10.1-32.8,24-39
			C224.8,515.8,212.6,524.9,213,538z M77,541c-0.9,9.2,10.5,25.4,20,24c1.3-12.2-9.1-17.3-7-26c2.1-8.6,17.4-8,19-19
			c2.9-0.2,5.1,0.3,6,2c-9.4,9.6-28.2,18.5-14,37c3.8-0.8,4.8,1.2,8,1c-0.1-5.6,0.8-12.1-2-15c7.5-5.8,12-14.6,23-17
			c-4.9-2.8-8.2-7.1-11-12c-3.9-0.5-4.9,1.8-9,1c-2.3-12.3-14.3-12.6-20-3c-4.7-20-52.3,13-25,21c3.3-3.7,1.9-7.2,2-10
			c4.3,1.6,6.6-4,8-2c-5.3,7.6-9.7,25.6,0,32c-0.2-5.8-3.1-8.9-2-16c6.7-5.7,14.5-10.1,19-18C95.6,529.8,78.1,530,77,541z M226,528
			c-6.2,6.3-9.1,14.5-6,24c6.3,2,11.8,4.9,21,4c8.8,7.9,14.9,23.7,28,24c-5.6-1.7-12.4-7.6-13-11c5.1,2.2,11,3.7,15,7
			c-2.8-33.2,22.3-38.4,51-40C309.3,503.5,249.3,504.3,226,528z M244,603c-1.2-0.1-2.3-1.8-3,0c10-0.7,11.1,16.9,24,10
			c4.1,3.2,3,9.5,1,14c3.9-2.8,7.9-8.1,11-1c1.7-5.8-4.5-8.1,0-11c5,0.7,6.6,4.7,9,8c-0.3,3.1-5.1,6.9-2,10c1.8-4.2,9.6-2.4,9-9
			c-5.7-2.4-8.6-10.6-14-13c-7.1-3.2-16.1-2.2-23-5c-18.9-7.7-33.6-25.6-57-26c0.1,6.2-9.6,7.3-12,14c-2.2-0.8-5.4-0.6-6-3
			c2.5-4.8,6.5-8.2,9-13c-7.7-3.9-20.9-0.6-24-8c-3-7.2,5-16.5,7-24c4.3-0.4,10.3,1,13-1c0-11.7-13-17.7-22-15
			c-10.1,3-12.5,33.1-25,21c5.8-3.5,10.8-7.9,13-15c-5.6-0.7-6.1-6.5-14-5c-2,8.5-4.5,16.6-3,26c1.9,1,3.3-3,4,0
			c-8.5,5.1,8.2,13.8,5,20c-1.4-3.9-4.2-6.5-6-10c-2.9-1.4-5.1,2.7-6,0c0.8-2.8,3.7-6.8,2-9c-4-0.4-1.5,5.8-6,5c-2-7.8,4-15.9,2-27
			c-16.7-0.5-4.3,17.6-8,28c-7.6-0.4-1.7-14.3-7-17c1.4,8.4,0,17,1,26c2.1,19.4,20.5,25.5,28,41c-2.5,21.5-16,43.3-14,67
			c2.3,28.5,10.9,55.8,26,74c-0.8-9.8,1.9-16.1,3-24c-2.5-3.2-7.4-4-8-9c2.4-2.3,3.7,2.2,8,1c2.8-3.1,16-10,7-15
			c0.9,4.5-1.4,11.5-7,10c-10.1-2.7,0.4-22.7,4-28c-4.1,0.6-4.1,5.2-7,7c0-3,2.1-3.9,3-6c-2.7-0.6-6.2,3-8,0c-0.1-4.5,1.9-6.8,5-8
			c-5.7-0.6-8.2-7.6-6-13c-6.5,1-0.3,10.2-2,12c-5.9,0.3-2.8-8.1-4-10c0.4,1.6-3.7,3.4-4,1c3.1-11.6,9-20.3,20-24
			c-0.2-3.1,0.7-7.3-1-9c-5.4,1-7.1,5.6-13,6c-8.7-7.7-3.9-23.1,7-25c-0.7,2.4-2.8,6-1,8c6.3-6.1,3.4-29.6,15-24
			c0.1-9.7,12.5-12.8,20-9c6.6-3.7,9.6-11.1,19-12c-2,13.3,14.6,13.9,16,6C232.9,590.8,238.3,597.1,244,603z M287,554
			c7.4,2.5,17.2,0.3,15-10c-4.2-2.5-10.7-2.4-15,0C285.3,547.3,286.4,550.4,287,554z M405,621c-0.6,2-3,2-1,4
			c16.5,5.5,30.2,13.8,46,20c5.5-6.5-2.9-12.9-4-19c-8.4-2.7-22.6-3.5-35-5c6.9-4.4,20.6-2.1,28-6c-7.3-27.5-26.8-45.4-57-53
			c0,0-1.5-0.8-2-1c-6.4-2.9-9.9-6.1-16-8c-27.6-8.5-65.6-5.1-79,14c-12.7,18,5.4,50,19,54c9.3-5.7,17.7-17.7,25-22
			c0.1,8.5-3.1,13.6-6,19c5.1-1.9,19.3-4.1,24,0c-32.1-2.2-48.9,19.6-70,22c2.7,0.9,4.3,3.1,7,4c2.7-1.6,4.3-4.4,9-4
			c-0.7,4,1,5.7,1,9c21.5-5.9,39.9-24.4,65-21c4.3,0.6,12.4,4.3,18,7c29.8,14.5,60.2,38.9,74,64c2.1,1.9,3.8,2.6,5,3
			c0.3,3.4-1.3,8.7,3,8c0.2-15.9,3.1-34.2-1-52c-4.1,0.8,0.5,4.7-2,7c-3.2-2.1-7.9-8-8-10c1.1,2.4,5.1,2.6,6,0
			c-20.1-21.6-53.8-29.5-88-37C380.6,619.1,390,622.4,405,621z M95,575c3.9,1.1,9.3,0.7,13,2c1.7-1.7,0.8-5.9,1-9
			C102.6,568.6,97.1,570.1,95,575z M383,741c-1.6,19.1-15.8,25.5-27,35c6.6,13.5,12.5,27.5,28,32c-3.4,2.3-12.9-1.5-13,4
			c16.2,4.5,28.1-9.2,40-9c-9,8.4-22.1,12.6-35,17c16.9,2.1,31.8-6.2,41-15c-4.6,13.7-24.4,12.3-32,23c14.1,1.7,24.9-8.4,34-15
			c-4.8,5.6-8.3,12.5-14,17c-3.3,2.7-11.1,3.3-10,10c12.7,2.3,29.6,0.4,44,1c10-10.9,20.2-32.8,23-50c9-55-22.4-113.3-60-127
			c1.7-1.8,3.4,0.9,7,0c-14.4-16.6-32.9-29.1-60-33c-3.7,2.1,3.9,5.1-1,5c-5.1,1.8-1.4-5.3-5-5c-12.7,6-30.2,7.1-37,19
			c-9.3-2.4-16.7,8.4-30,8c-0.9,4.1,5.4,3.5,7,2c-0.6,2.4-3.9,2.1-3,6c10.7-3.3,11.9-16.1,28-14c10.3,8.2-1.8,26.8-12,20
			c-0.9-5.3,4.6-4.1,5-8c-11,1.8-7.1,13.9-12,20c-5.8,7.2-19.3,1-20,13c2.3,3.6,6.2-0.4,8,3c-1.2,0.2-2.8-0.2-3,1
			c3.4,2.3,6.7,1.5,8-3c-1.2-4.5-7.4-3.5-10-4c0.1-4.5,6.8-2.6,11-3c9.8-6.2,17.8-19.6,31-19c-8.8,9.9-24.6,12.7-25,31
			c-7.9,13.9-29.5,4.6-43,7c3.2,3.6,0.2,6.4,1,9c4.4-0.5,5,1.4,8,0c2.3-1,1.2-5.5,3-7c2.1-0.4,5.1,0.8,6,2c8.8,11.6-6.8,28.4-15,32
			c3.1,28.8,25.1,54.3,54,57c7,0.7,20.2,0.2,26-2c17.7-6.8,9.4-33.2-2-39C348.3,773.7,377.1,762,383,741z M147,669
			c-0.9-4.6,8-4.6,5-8C150.1,662.9,143.2,664.9,147,669z M164,732c-2.6,14.4-0.7,30.7,3,42c16.6,12.3,33.4,24.2,62,20
			c-7.5,2.4-3.2-3.9-2-4c2.8-0.2,7.1,8.4,8,4c-4.8-8.6-14.8-20.5-19-33c-13.3,0-25.9-0.8-23-17c-2.6-0.2-16.7,5.7-20-1
			c3-1.2,5.8-0.3,10-2c2.9-8.6-6.3-17-4-25C175.8,723.6,171.1,731.1,164,732z M203,736c-1.4,5.6,0.2,7.6,2,12c5.4,0.4,4.2-2.8,9-1
			c-0.5-3.5-1.5-6.5-1-11c-4-1-0.4,5.6-4,5c-1.9-1.8,0.8-2.5,0-6C205.9,734.3,206.1,736.7,203,736z M218,759c0.1,9.6,8.8,15.7,14,22
			c0-5.4-4.7-6-5-11c3,1.6,5.7,3.6,7,7c1.8-5.4-2.6-10.5-2-17c0.6-6.3,7.8-14.1,3-18c0.3,5.6-1.2,9.5-4,12c-2.5-5.8-7.7-14.3-14-13
			C227.6,743.6,217.9,753.1,218,759z M203,907c-6.1,3.2-13.7,3.3-22,2c0.9,4,0.9,5,0,9c12.8,5.9,34.3-2.2,42-11
			C216.7,903.7,203.6,890.5,203,907z M268,926c6.8-5.6,12.5-12.1,14-23c0.7-4.7-1.7-4.7-1,0c-2,3-2.3,7.7-9,6c1.8-3.2,6.6-3.4,7-8
			c-16.1,10-40.3-1.3-52-2C236.5,913.3,252.1,923.4,268,926z M404,915c-2.2,38.4-7.4,73.8-22,97c-14,22.2-32.7,36.7-52,54
			c-2.6-1-4.4-6.1-8-3c4.6,6.3,9.4,24.1,19,25c7.8,0.7,25.4-16.3,36-12c12-13.7,20.9-35.8,19-60c-15.6,21.4-32.6,46.7-60,53
			c40.5-30.1,68.7-70,73-133c0.6-9.5,3-18.6-2-24c-0.7,0-1.3,0-2,0C404.9,913.3,403.7,913.4,404,915z M196,928
			c3.4,7.5,11.1,6.7,21,6c2.7-6.3,8.3-9.7,10-17C216.5,920.5,205.7,923.7,196,928z M363,926c-21.9,8.1-42.9,22.5-60,32
			c0.2,18.9-2.1,31.2-3,50c-0.8,17.1-2.5,38.3,1,47c1.5,3.8,5.5,5.4,6,9c0.9,6.4-6.6,15.4-4,25c2.6,9.4,17.8,15.4,25,3
			c-6.2-6.8-4.6-12-5-22c-5,0-9.6-0.4-13-2c0.8-2.8-1.4-2.6-1-5c0.6-1.7,4.7,0.1,5-2c-3.4,0.4-5.7-0.3-5-4c3.8,2.2,5.9,0.1,7-3
			c3.5,11,14,1.7,20,2c30.3-33.3,62.6-70.7,56-135C384.1,918.5,372.8,922.4,363,926z M272,929c5.7,0.3,10.3-5.6,9-9
			C279.7,924.7,272.2,923.2,272,929z M233,930c1.5-1.6,5,0.9,5-4c-3.2,1.2-0.8-3.2-4-2C233.8,925.6,230.2,928.7,233,930z M223,940
			c-5.1,14.6-17.6,21.8-27,32c10.5,4.1,23.4,14.2,34,10c11.9-4.7,17.6-31.1,19-44C243,936.9,230.1,942.1,223,940z M278,965
			c-2.5-2.6,3.7-4.9,7-5c1.6-4.9,3.4-14.3,1-20c-7.8,1.6-18.3,1.4-25-1c5.2,16.6,16.8,35.1,6,57c3.7,2,6.4,4.9,11,6
			c1.8-0.3,2.4-6.9,4-4c-0.6,2.1-2.1,3.2-3,5c3.1-0.7,1.9,2.7,5,2c1.5-6.8,5.4-11.2,6-19c1.8,7.7-4.2,16.9,2,20
			c1.6-10.9,0.4-18.8,1-31c-3.6-1-0.8,4.5-4,4c0-2.3,0-4.7,0-7c-5.4,0-6.1-4.6-10-6c0.4,2,2.5,7.4,0,9c0.3-5.9-3.4-7.9-6-11
			C275.6,962.9,276.5,968.3,278,965z M185,942c-1.6,3.7,0.6,11.1,1,16c11,2.4,21.1-8.5,22-16C200.9,944.9,190.1,940.9,185,942z
			 M242,985c3.1,0.5,8.5,2.2,15,2c5.7-11.4,6.8-24.1,0-36C256.8,966,249.4,974.8,242,985z M536,990c2.5,3.9,2.8,9.4,6,9
			c5-0.6,7.5-9.7,6-15c-2.3-7.9-14.7-9.4-25-9C526.3,979.7,532.2,984.1,536,990z M510,984c-0.1,3.7,2.2,15.6-1,24
			c1.3,1.4,4.7,0.6,6,2c0.9-2.8,2.4-4.9,3-8c-2-2.7-5.9-8.7-3-13c7.5,6.7,9.9,23.1-1,28c-2.8-1.5-6.2-2.5-10-3c-0.8,8.4-7.1,15-3,20
			c13.2-6.5,25.8-16.6,31-28C527.7,996.3,520.8,977.7,510,984z M210,1003c3.4-3.5,8.2-5.8,10-11c-5.9-1.4-12.8-3.8-17-4
			C201.1,993.9,204.3,1001.6,210,1003z M470,1014c3.6-2.6,4.3-8.6,5-16c-3.6-1.6-0.6,3.4-3,3c-0.5-1.5,1.2-5.2-1-5
			c-4.2,2.1-14-6.2-20-7c-3.2,15.1,8.7,20.5,17,27C466.4,1010.8,468,1015.4,470,1014z M436,994c1.4,0,2.2,0.5,3,1
			c0.9-1.9,5.3-4.6,1-6C439,991,435.6,990.6,436,994z M495,993c3,4,3.2,10.8,8,13c-0.6-6.3,2.6-12.4-2-16
			C499.6,991.6,497.6,992.6,495,993z M214,1015c1.7,3.4,1.6,6.5,2,9c7.7,2.5,12.5,8.2,20,7c8.1-1.3,17.7-19.5,16-30
			c-5.6,0.9-15.1-2.9-20-6C227.7,999.9,220.9,1009.5,214,1015z M411,1008c0.1,6.4,15.4,17.5,20,19c2.4-7.6,5.6-14.4,7-23
			C431.7,992.5,410.7,994.8,411,1008z M494,1016c-0.2-10.4-15.8-12.5-16,3C481.2,1029.1,494.1,1023.8,494,1016z M439,1046
			c10.9,1.7,16.4-10.1,20-19c-3-3.7-5.1-8.3-10-10C446.7,1026.9,434.8,1036,439,1046z M404,1058c10.9,0.5,13.8-10.1,19-18
			c-3.9-6.8-5.7-15.6-15-17C410.7,1035,407.3,1048.8,404,1058z M250,1037c2.8,1.2,5.2,1.2,8,0c-0.8-3.2-2.8-5.2-6-6
			C252.3,1033.9,249.7,1034.1,250,1037z M502,1047c2,4,1.2,7.6,1,12c15.8,1.8,31,4.3,41,12c1.1-4.1-2.1-3.9-2-7
			c7.5-8.1-1.4-24.2-4-32C526.8,1031.1,514.2,1042.6,502,1047z M496,1045c-6.6-3.4-19.4-0.6-27-3c4.2-5.1,12.9-5.7,21-7
			c-19.6-5.4-32.5,11.7-46,19c13.1,5.2,65.8,1.9,51-12C496.2,1042.2,496.1,1043.6,496,1045z M216,1039c0.7,1.8,1.4,9.1,5,11
			c2-2.7,6.9-2.4,8-6c-0.8-0.2-1.2-0.8-1-2C222.5,1043,217.9,1035.2,216,1039z M230,1057c0.8,1.6,3.2,1.5,3,4c-3.6,1.7-12-6.7-14-3
			c2,3.6,11,7.2,19,10c5.4,1.9,11.3,2.1,16,4c0.6-2.1,1.5-3.8,5-3c-0.6-6.6,4.3-7.7,5-13c-6.2,2.3-4.8,11.8-12,10
			c-7.2-1.8-2.1-16.4-11-19C239,1052,234,1054,230,1057z M251,1056c2,0,4,0,6,0c-0.8-2.8,1.4-2.6,1-5c-2.4-1.6-6.4-1.6-9-3
			C247,1050.3,251.4,1052.3,251,1056z M425,1055c3.8,0.4,4.7-2,7-3c-0.1-1.9-0.7-3.3-2-4C429.1,1051.1,424.1,1050.1,425,1055z
			 M273,1073c5-0.3,5.8-4.8,8-8c-2.2,0.1-2.7-6.5-5-3C278.5,1065.2,273.9,1069.9,273,1073z M493,1072c9.6,2.7,23.5,1.2,29,8
			c-3-2-4.4,4.5-4,9c2.4-0.4,2.2,1.8,5,1c-0.8-4.4,2.7-7.8,0-11c2.5,0.7,4.1,1,6-1c-9.2-7.5-28.3-10.4-40-12
			C491.8,1066.5,492.5,1069.1,493,1072z M471,1078c4.2-0.2,12.4-2,13,6C505.7,1075.5,475.9,1059.1,471,1078z M237,1087
			c-19.3-1.3-31.1-23.7-47-10c12.1,8.9,20.9,21.1,28,35c9-12.6,23.5-19.8,38-27C248,1084.4,243.2,1087.4,237,1087z M501,1093
			c-0.3-6,1.4-9.9,3-14c-1.9-0.4-1.8-2.9-5-2C498.9,1081.6,490.9,1093.3,501,1093z M510,1094c0.1-4,5-14.2-1-15
			C506.3,1081.8,501.3,1094.4,510,1094z M178,1083c4.5,7.7,3.2,22.4,8,30c2.2,3.5,10.8,5.5,4,11c-3-1.3-2.7-6-7-6
			c-3.1,3.6-8.2,5.1-10,10c0.8,0.2,1.2,0.8,1,2c1.9,1.9,4-1.1,7-1c0.6-1.8-2.9-4.2,0-5c1.4,1.2,1.9,3.4,2,6c-3.3,0.4-5,2.3-7,4
			c11.6,5.7,18.1-9.5,27-11c-4.2-17.4-11.1-32.2-22-43C180.4,1081.4,179.4,1082.4,178,1083z M475,1090c4-0.7,4.3-5,6-8
			c-1.5-0.5-2.5-1.5-4-2C477,1083.8,472.1,1086.4,475,1090z M530,1089c4.2-0.1,4.1-4.6,4-9c-1,0-2,0-3,0
			C530.2,1082.6,528.3,1087.1,530,1089z M471,1088c-0.7-3.1,1.7-2.9,1-6C468.1,1081.2,465.9,1088.4,471,1088z M163,1092
			c-0.8,2.8,1.4,2.6,1,5c4.1-1.5,8.7-2.6,10-7c-1.6-0.1-0.8-2.5-3-2C168.9,1089.9,166.2,1091.2,163,1092z M160,1102
			c-0.2,2.5,1.6,3.1,2,5c6.8-1.2,11.3-4.7,17-7C176.5,1091.6,165.5,1101,160,1102z M160,1113c1.9,2.8,3.2,6.1,6,8
			c3.8-3.8,11.2-4.1,14-9c-1.1-2.4-4.6,2.1-6-1c2.5-1.5,6.8-1.2,7-5C175.7,1102.4,164.1,1108.8,160,1113z"/>
		<path style="&st0;" d="M406,202c49.7,1.9,98,1.1,146,1c-0.2,5.2,0.6,11.3-1,15c-2.5,1.5-7.8,0.2-10,2c0,15.3,0,30.7,0,46
			c1.1,2.6,7.7-0.4,9,2c-1.9,2.1-0.7,7.3-1,11c-46.9,1.8-98.2,3.4-146,2c0-4.4-0.3-9,1-12c17-2.7,20.2-19.2,32-27
			c-7.7-9.6-12.6-22.1-30-22C406,214,406,208,406,202z M462,239c-2.8,7.5,13.1,26.9,17,28c2.8,0.8,6.2-2.4,9-1
			c-1.4-16.8,3.6-32.4,1-47c-12.4-0.4-24.5,13.4-29,21C460.2,238.9,461.6,237.6,462,239z M435,221c5.3,12.4,22.8,8.7,23-3
			C448.7,218.8,437.8,215.9,435,221z M505,221c1.4,14.5-2.5,32.7,2,46c7.1,1.1,10.7-0.3,16-3c-0.6-14.4-1.4-28.6-1-44
			C517,217.9,509.8,219.8,505,221z M435,267c5.2,2.2,14.2,0.4,21,1c-1.9-6.1-6.3-9.7-10-14C443.7,259.7,435.9,259.9,435,267z"/>
		<path style="&st0;" d="M665,230c0.4-1.6-3.7-3.4-4-1c-2.7-1.5,1.6-4.3,2-6c2.1,0.6,3.2,2.1,5,3c-7.8,18.9-17.5,35.8-25,55
			C647,264.7,656.5,245.2,665,230z"/>
		<path style="&st0;" d="M622,336c0.3,10.7-6.9,22.5-8,35C613,359.6,619.8,347.5,622,336z"/>
		<path style="&st0;" d="M617,374c0.6-10.9,1.6-22.3,6-29c1.4-2.2,0.1,5.2-1,10C620.6,360.9,616.8,367.4,617,374z"/>
		<path style="&st0;" d="M608,386c1.8,10.8-4.6,22-5,34C600.7,408.6,605.9,396.2,608,386z"/>
		<path style="&st0;" d="M594,468c0.4-1.5,0.9,0.1,2,0c-13.5,8.8-28.9,15.8-41,26c0.4,2.7,5.1,3.7,3,6c-5.5,0.8-3.7-5.7-4-10
			C567.7,483.1,580.6,475.3,594,468z"/>
		<path style="&st0;" d="M600,473c-1.5,1-11.8,10.9-18,11C583.6,480,593.9,475.9,600,473z"/>
		<path style="&st0;" d="M575,496c0.5,4.5-5.8,2.2-7,5c-0.8,14.8,1.4,26.6,1,41c-7.7,6.7-4.7-1.5-1-6
			C563.3,526.9,560.8,492.5,575,496z"/>
		<path style="&st0;" d="M219,505c3.1,2.2-2.9,3.7-4,5C213,512.1,217.2,505.5,219,505z"/>
		<path style="&st0;" d="M835,508c6.5,5.5,12.4,11.6,18,18C848.3,522.7,840.3,514,835,508z"/>
		<path style="&st0;" d="M179,509C179.1,517.9,173.1,519.4,179,509L179,509z"/>
		<path style="&st0;" d="M199,513c1.7-2.4-1.5,5.2-3,6C194,523.7,197,513.6,199,513z"/>
		<path style="&st0;" d="M181,521C178.4,519.9,185.6,510.8,181,521L181,521z"/>
		<path style="&st0;" d="M189,525C187.2,518.8,193.3,516.3,189,525L189,525z"/>
		<path style="&st0;" d="M300,547c-0.7,5.6-8.1,5.4-13,4c0.2-2.8,1.7-4.3,5-4c-0.8,0.9-1.1,2.3-1,4C297.1,552.8,295.3,546.7,300,547
			z"/>
		<path style="&st0;" d="M531,555c4.4-4.6,13.7-9.2,20-11c4.7-1.3-0.2,0.5-1,1C546.5,547.1,536.7,552,531,555z"/>
		<path style="&st0;" d="M526,555c0.6,0.9,1.2,1.8,0,2c7.9,6.9,18.8-8.7,29-6c-7.6,6.4-18.7,9.3-28,14c-1.9-2.4-3-5.7-3-10
			C526.6,552.9,531.3,552.9,526,555z"/>
		<path style="&st0;" d="M128,577c2,0.7,2.7,2.7,3,5C129.8,580.5,128.1,579.6,128,577z"/>
		<path style="&st0;" d="M122,582c8.6,6.7,14.2,16.4,21,25C136.6,602,128.3,590.3,122,582z"/>
		<path style="&st0;" d="M434,628c2.8-3.1,6.9,1,11,0C442.3,631,438.4,626.7,434,628z"/>
		<path style="&st0;" d="M329,650c-5.7,2.3-10.2,5.8-15,9C317.5,654.5,322.3,651.3,329,650z"/>
		<path style="&st0;" d="M514,657c-3.5,5.8-17.7,9.6-25,15C489.9,663.6,506.3,662,514,657z"/>
		<path style="&st0;" d="M329,662c-1.4,1.6-3.4,2.6-6,3C324.4,663.4,326.4,662.4,329,662z"/>
		<path style="&st0;" d="M403,698c0.8-2.8-1.4-2.6-1-5c3,2.3,5.8,4.9,9,7C409.8,701.8,406,697.7,403,698z"/>
		<path style="&st0;" d="M433,736c-0.5,23.8-17.4,39.9-35,50C411.3,774.9,428.9,759.6,433,736z"/>
		<path style="&st0;" d="M261,741c2.6,0.4,0.9,5.1,3,6C262.8,749.1,258.3,742.9,261,741z"/>
		<path style="&st0;" d="M444,747c4.7,17.8-9.3,32.1-17,44C432.7,780.4,440.9,763.6,444,747z"/>
		<path style="&st0;" d="M415,753C414.8,758.2,408.7,760.7,415,753L415,753z"/>
		<path style="&st0;" d="M222,755c1.9,2.5,0.8,7.8,3,10C223.8,766.2,220.1,757.2,222,755z"/>
		<path style="&st0;" d="M486,785c0.7-3,2.1-19.2,3-22C489.3,773.1,490,778.4,486,785z"/>
		<path style="&st0;" d="M374,769c2,4.8-11.8,6.2-8,13c-1.8-0.9-3.5-1.9-3-5C367.6,775.2,371.6,773,374,769z"/>
		<path style="&st0;" d="M495,771c2.1,9-5.7,24.8-14,30C487.7,793.1,492.6,783.3,495,771z"/>
		<path style="&st0;" d="M171,773c3.1-1.4,7,4.9,11,6C179.1,780.2,174.1,774.9,171,773z"/>
		<path style="&st0;" d="M216,792c0.2,2.2-3.5,0.5-5,1c-10.8-1-24.6-9.3-27-12C193.7,785.6,202.4,791.2,216,792z"/>
		<path style="&st0;" d="M443,783c-0.7,7-7.5,16.5-14,21C432.5,795.8,439.9,791.5,443,783z"/>
		<path style="&st0;" d="M504,786c1.5,0.9,2.2,2.5,2,5c-8.3,4.8-8.5,22.7-18,23C493.2,804.5,501.6,798.3,504,786z"/>
		<path style="&st0;" d="M516,828c1.4,2-9.9-17.3-5-21c0.9-0.6,0.6,4.9,1,6C513.3,817,514.4,821.5,516,828z"/>
		<path style="&st0;" d="M490,818c4.4,1.6,3.8,8.2,6,12C493,827,491.7,822.3,490,818z"/>
		<path style="&st0;" d="M513,847c-4.1-4.9-6.4-11.6-8-19C508.7,833.3,512.2,838.8,513,847z"/>
		<path style="&st0;" d="M438,832c1.9,0.1-0.2,4.3-3,3C434.7,832.7,437.9,833.9,438,832z"/>
		<path style="&st0;" d="M224,845c-2.4,1-15.9,8-24,10c0.7-3.1-2.7-1.9-2-5c0.8-0.9,2.7-0.6,3-2c3.6-1,0.8,4.5,4,4
			C211.9,850.2,215.8,845.5,224,845z"/>
		<path style="&st0;" d="M758,859C759.3,859.7,749.5,866.5,758,859L758,859z"/>
		<path style="&st0;" d="M275,873c-6.4,10.6-26.5,18.1-38,17C251.3,886,263.8,880.1,275,873z"/>
		<path style="&st0;" d="M499,877c3.2-2.4,4.1,11.2,9,7c2.7,0.9-1.4,3.1,0,6C503.1,887.6,502.1,881.3,499,877z"/>
		<path style="&st0;" d="M505,897c-4.4,0.1-7.6-9.7-10-15C498.6,886.7,500.8,892.9,505,897z"/>
		<path style="&st0;" d="M493,893c-1.7-0.4-1.9,0.8-2,2c-2.3-1.1-0.4-6.3-1-9c1.8,5.3,8,9.9,6,16C494.1,899.9,495.4,894.6,493,893z"
			/>
		<path style="&st0;" d="M484,894c1.7,4.2-6,15.9-8,23C474.9,909.6,482.2,901.9,484,894z"/>
		<path style="&st0;" d="M167,909c2,0.3,2,2.7,4,3C170.8,913.7,166.2,911.5,167,909z"/>
		<path style="&st0;" d="M485,911c-0.4,7.1-10.2,18.1-8,28c4.8,0.8,4.2-3.8,6-6c3.1,2.2-1,5.6,0,9c-4.2-0.5-7.4-1.9-11-3
			C474.3,927.7,481.2,920.9,485,911z"/>
		<path style="&st0;" d="M513,941c3.8,1.2,8,2,13,2c-0.3-7-1.8-12.8-2-20c2.3,7.4,3,16.3,5,24c-5,0-10,0-15,0
			c-3.7-8.6-4.6-20.1-4-33c0.6-5.2,1.4,2,1,4c0,3,0,6,0,9C512.3,931.1,511.5,937.1,513,941z"/>
		<path style="&st0;" d="M493,923c-2.1,5.2,3.3,22.4-4,24C487.9,940.4,489.8,928.6,493,923z"/>
		<path style="&st0;" d="M361,942c3.5,7.8-2.3,28.2-5,33C359.8,966.1,357.1,950.7,361,942z"/>
		<path style="&st0;" d="M265,946c2.4,0.8,5.9,9.5,4,8C268.1,950.9,265.2,949.8,265,946z"/>
		<path style="&st0;" d="M461,947c0.2,5.8,11.9,0.1,13,5c-6.2-0.4-15.3-2.4-21,0C451.2,949.8,459.8,949.5,461,947z"/>
		<path style="&st0;" d="M240,960c-1.2,5.5-6.1,15.8-14,18C230.9,972.2,236.6,967.2,240,960z"/>
		<path style="&st0;" d="M283,990c2.4-2.2-0.2,4.2,0,6C280,994.8,284.1,992.6,283,990z"/>
		<path style="&st0;" d="M337,1077c0.6-2.4,3.8-2.2,6-3c-1.2,1.7-0.3,7.7,1,10C341.8,1085.5,340,1078.1,337,1077z"/>
		<path style="&st0;" d="M322,1091c-2.6-5.1-6.9-8.4-9-14c6.4,2,7.8,8.9,11,14c-1.4,1.9-3.1,3.6-5,5
			C317.1,1095.3,320.4,1091.4,322,1091z"/>
		<path style="&st0;" d="M455,1077c2.6,3.7-2.9,3.2-5,4C447.6,1079.5,454.6,1079.1,455,1077z"/>
		<path style="&st0;" d="M573,1091c6.9-1.2,17.2,2.8,25,4C595.5,1095.7,578.8,1093.6,573,1091z"/>
		<path style="&st0;" d="M262,1098c7.4-4.9,30.1-2.9,30,1C283.9,1096,271.5,1096.9,262,1098z"/>
		<path style="&st0;" d="M368,1096c-8.7,5-24.2,13.7-31,14C346.5,1104.5,356.2,1099.2,368,1096z"/>
		<path style="&st0;" d="M460,1102c-11.2,5.3-35.2,4.6-47,3c-4,0-8,0-12,0c1.7-2.3,7.6-0.4,11-1C427.9,1108.3,449.5,1096.6,460,1102
			z"/>
		<path style="&st0;" d="M639,1107c14.5,0.5,45.8,2.4,60-6c-1.8,6.7-13.3,7.4-22,8C664,1109.9,649.5,1108.8,639,1107z"/>
		<path style="&st0;" d="M379,1102c-0.9,2.8-5.2,2.1-7,4C370.6,1104.8,376.6,1102.6,379,1102z"/>
		<path style="&st0;" d="M279,1106c10.4-3.8,19.5-0.1,28,3c-8.3,3.9-21.7-7-27,0c0.5,3.5,4.7,3.3,8,4c-14.3,0.7-31.1,2.4-48,5
			c10.3-5.4,24-7.3,39-8C279.3,1109.4,281.5,1106.1,279,1106z"/>
		<path style="&st0;" d="M247,1109c-2.8,1.9-6.2,3.1-10,4C238.8,1110.1,243.1,1109.8,247,1109z"/>
		<path style="&st0;" d="M676,1116c5.2-3.3,11.1-2.7,16-4c4.8-1.3-1.2,3.3-4,4C684.1,1116.9,681.6,1115.3,676,1116z"/>
		<path style="&st0;" d="M429,1119C413.7,1117.6,438.6,1119.8,429,1119L429,1119z"/>
		<path style="&st0;" d="M211,1131c3.3,2.4-3.7,2.9-5,4C203.8,1133.7,210,1132.4,211,1131z"/>
	</g>
</g>
</svg>
